<?xml version="1.0" encoding="UTF-8"?>
<svg version="1.1" xmlns="http://www.w3.org/2000/svg" width="4792" height="2367">
<path d="M0 0 C1581.36 0 3162.72 0 4792 0 C4792 781.11 4792 1562.22 4792 2367 C3210.64 2367 1629.28 2367 0 2367 C0 1585.89 0 804.78 0 0 Z " fill="#FEFEFE" transform="translate(0,0)"/>
<path d="M0 0 C161.37 0 322.74 0 489 0 C489 1.32 489 2.64 489 4 C493.95 4 498.9 4 504 4 C504 5.32 504 6.64 504 8 C513.24 8 522.48 8 532 8 C532 9.32 532 10.64 532 12 C538.6 12 545.2 12 552 12 C552 13.32 552 14.64 552 16 C554.64 16 557.28 16 560 16 C560 17.32 560 18.64 560 20 C563.63 20 567.26 20 571 20 C571 21.32 571 22.64 571 24 C574.96 24 578.92 24 583 24 C583 25.32 583 26.64 583 28 C586.96 28 590.92 28 595 28 C595 28.99 595 29.98 595 31 C598.96 31 602.92 31 607 31 C607 32.32 607 33.64 607 35 C609.64 35 612.28 35 615 35 C615 36.32 615 37.64 615 39 C617.64 39 620.28 39 623 39 C623 40.32 623 41.64 623 43 C625.64 43 628.28 43 631 43 C631 44.32 631 45.64 631 47 C633.64 47 636.28 47 639 47 C639 48.32 639 49.64 639 51 C641.31 51 643.62 51 646 51 C646 52.32 646 53.64 646 55 C648.64 55 651.28 55 654 55 C654 56.32 654 57.64 654 59 C656.64 59 659.28 59 662 59 C662 60.32 662 61.64 662 63 C663.32 63 664.64 63 666 63 C666 64.32 666 65.64 666 67 C668.64 67 671.28 67 674 67 C674 68.32 674 69.64 674 71 C675.32 71 676.64 71 678 71 C678 72.32 678 73.64 678 75 C680.64 75 683.28 75 686 75 C686 76.32 686 77.64 686 79 C687.32 79 688.64 79 690 79 C690 80.32 690 81.64 690 83 C691.32 83 692.64 83 694 83 C694 84.32 694 85.64 694 87 C696.64 87 699.28 87 702 87 C702 88.32 702 89.64 702 91 C703.32 91 704.64 91 706 91 C706 92.32 706 93.64 706 95 C707.32 95 708.64 95 710 95 C710 96.32 710 97.64 710 99 C710.99 99 711.98 99 713 99 C713 99.99 713 100.98 713 102 C715.64 102 718.28 102 721 102 C721 103.32 721 104.64 721 106 C722.32 106 723.64 106 725 106 C725 107.32 725 108.64 725 110 C726.32 110 727.64 110 729 110 C729 111.32 729 112.64 729 114 C730.32 114 731.64 114 733 114 C733 115.32 733 116.64 733 118 C734.32 118 735.64 118 737 118 C737 119.32 737 120.64 737 122 C738.32 122 739.64 122 741 122 C741 123.32 741 124.64 741 126 C742.32 126 743.64 126 745 126 C745 127.32 745 128.64 745 130 C746.32 130 747.64 130 749 130 C749 131.32 749 132.64 749 134 C750.32 134 751.64 134 753 134 C753 135.32 753 136.64 753 138 C754.32 138 755.64 138 757 138 C757 139.32 757 140.64 757 142 C758.32 142 759.64 142 761 142 C761 143.32 761 144.64 761 146 C762.32 146 763.64 146 765 146 C765 148.64 765 151.28 765 154 C766.32 154 767.64 154 769 154 C769 155.32 769 156.64 769 158 C770.32 158 771.64 158 773 158 C773 159.32 773 160.64 773 162 C774.32 162 775.64 162 777 162 C777 163.32 777 164.64 777 166 C778.32 166 779.64 166 781 166 C781 167.32 781 168.64 781 170 C781.99 170 782.98 170 784 170 C784 172.31 784 174.62 784 177 C785.32 177 786.64 177 788 177 C788 178.32 788 179.64 788 181 C789.32 181 790.64 181 792 181 C792 183.64 792 186.28 792 189 C793.32 189 794.64 189 796 189 C796 190.32 796 191.64 796 193 C797.32 193 798.64 193 800 193 C800 195.64 800 198.28 800 201 C801.32 201 802.64 201 804 201 C804 202.32 804 203.64 804 205 C805.32 205 806.64 205 808 205 C808 207.64 808 210.28 808 213 C809.32 213 810.64 213 812 213 C812 215.64 812 218.28 812 221 C813.32 221 814.64 221 816 221 C816 223.64 816 226.28 816 229 C817.32 229 818.64 229 820 229 C820 231.64 820 234.28 820 237 C821.32 237 822.64 237 824 237 C824 238.32 824 239.64 824 241 C825.32 241 826.64 241 828 241 C828 244.63 828 248.26 828 252 C829.32 252 830.64 252 832 252 C832 254.64 832 257.28 832 260 C833.32 260 834.64 260 836 260 C836 262.64 836 265.28 836 268 C837.32 268 838.64 268 840 268 C840 270.64 840 273.28 840 276 C841.32 276 842.64 276 844 276 C844 279.96 844 283.92 844 288 C845.32 288 846.64 288 848 288 C848 291.96 848 295.92 848 300 C849.32 300 850.64 300 852 300 C852 306.27 852 312.54 852 319 C852.99 319 853.98 319 855 319 C855 324.28 855 329.56 855 335 C856.32 335 857.64 335 859 335 C859 340.28 859 345.56 859 351 C860.32 351 861.64 351 863 351 C863 360.24 863 369.48 863 379 C864.32 379 865.64 379 867 379 C867 415.3 867 451.6 867 489 C865.68 489 864.36 489 863 489 C863 494.28 863 499.56 863 505 C861.68 505 860.36 505 859 505 C859 513.91 859 522.82 859 532 C857.68 532 856.36 532 855 532 C855 534.64 855 537.28 855 540 C854.01 540 853.02 540 852 540 C852 545.28 852 550.56 852 556 C850.68 556 849.36 556 848 556 C848 559.96 848 563.92 848 568 C846.68 568 845.36 568 844 568 C844 571.96 844 575.92 844 580 C842.68 580 841.36 580 840 580 C840 582.64 840 585.28 840 588 C838.68 588 837.36 588 836 588 C836 591.63 836 595.26 836 599 C834.68 599 833.36 599 832 599 C832 601.64 832 604.28 832 607 C830.68 607 829.36 607 828 607 C828 610.96 828 614.92 828 619 C826.68 619 825.36 619 824 619 C824 621.64 824 624.28 824 627 C822.68 627 821.36 627 820 627 C820 629.64 820 632.28 820 635 C818.68 635 817.36 635 816 635 C816 636.32 816 637.64 816 639 C814.68 639 813.36 639 812 639 C812 641.64 812 644.28 812 647 C810.68 647 809.36 647 808 647 C808 649.64 808 652.28 808 655 C806.68 655 805.36 655 804 655 C804 656.32 804 657.64 804 659 C802.68 659 801.36 659 800 659 C800 661.64 800 664.28 800 667 C798.68 667 797.36 667 796 667 C796 669.31 796 671.62 796 674 C794.68 674 793.36 674 792 674 C792 675.32 792 676.64 792 678 C790.68 678 789.36 678 788 678 C788 679.32 788 680.64 788 682 C789.32 682 790.64 682 792 682 C792 684.64 792 687.28 792 690 C793.32 690 794.64 690 796 690 C796 691.32 796 692.64 796 694 C797.32 694 798.64 694 800 694 C800 696.64 800 699.28 800 702 C801.32 702 802.64 702 804 702 C804 703.32 804 704.64 804 706 C805.32 706 806.64 706 808 706 C808 708.64 808 711.28 808 714 C809.32 714 810.64 714 812 714 C812 716.64 812 719.28 812 722 C813.32 722 814.64 722 816 722 C816 723.32 816 724.64 816 726 C817.32 726 818.64 726 820 726 C820 728.64 820 731.28 820 734 C821.32 734 822.64 734 824 734 C824 736.31 824 738.62 824 741 C825.32 741 826.64 741 828 741 C828 744.96 828 748.92 828 753 C829.32 753 830.64 753 832 753 C832 755.64 832 758.28 832 761 C833.32 761 834.64 761 836 761 C836 763.64 836 766.28 836 769 C837.32 769 838.64 769 840 769 C840 771.64 840 774.28 840 777 C841.32 777 842.64 777 844 777 C844 780.96 844 784.92 844 789 C845.32 789 846.64 789 848 789 C848 792.96 848 796.92 848 801 C849.32 801 850.64 801 852 801 C852 807.27 852 813.54 852 820 C852.99 820 853.98 820 855 820 C855 825.28 855 830.56 855 836 C856.32 836 857.64 836 859 836 C859 841.28 859 846.56 859 852 C860.32 852 861.64 852 863 852 C863.33 861.24 863.66 870.48 864 880 C864.99 880 865.98 880 867 880 C867 916.3 867 952.6 867 990 C865.68 990 864.36 990 863 990 C863 997.92 863 1005.84 863 1014 C861.68 1014 860.36 1014 859 1014 C859 1017.63 859 1021.26 859 1025 C857.68 1025 856.36 1025 855 1025 C855 1030.28 855 1035.56 855 1041 C854.01 1041 853.02 1041 852 1041 C852 1046.28 852 1051.56 852 1057 C850.68 1057 849.36 1057 848 1057 C848 1060.96 848 1064.92 848 1069 C846.68 1069 845.36 1069 844 1069 C844 1072.96 844 1076.92 844 1081 C842.68 1081 841.36 1081 840 1081 C840 1084.96 840 1088.92 840 1093 C838.68 1093 837.36 1093 836 1093 C836 1095.31 836 1097.62 836 1100 C834.68 1100 833.36 1100 832 1100 C832 1102.64 832 1105.28 832 1108 C830.68 1108 829.36 1108 828 1108 C828 1110.64 828 1113.28 828 1116 C826.68 1116 825.36 1116 824 1116 C824 1119.96 824 1123.92 824 1128 C822.68 1128 821.36 1128 820 1128 C820 1129.32 820 1130.64 820 1132 C818.68 1132 817.36 1132 816 1132 C816 1134.64 816 1137.28 816 1140 C814.68 1140 813.36 1140 812 1140 C812 1142.64 812 1145.28 812 1148 C810.68 1148 809.36 1148 808 1148 C808 1150.64 808 1153.28 808 1156 C806.68 1156 805.36 1156 804 1156 C804 1157.32 804 1158.64 804 1160 C802.68 1160 801.36 1160 800 1160 C800 1162.31 800 1164.62 800 1167 C798.68 1167 797.36 1167 796 1167 C796 1168.32 796 1169.64 796 1171 C794.68 1171 793.36 1171 792 1171 C792 1173.64 792 1176.28 792 1179 C790.68 1179 789.36 1179 788 1179 C788 1180.32 788 1181.64 788 1183 C786.68 1183 785.36 1183 784 1183 C784 1185.64 784 1188.28 784 1191 C783.01 1191 782.02 1191 781 1191 C781 1192.32 781 1193.64 781 1195 C779.68 1195 778.36 1195 777 1195 C777 1196.32 777 1197.64 777 1199 C775.68 1199 774.36 1199 773 1199 C773 1200.32 773 1201.64 773 1203 C771.68 1203 770.36 1203 769 1203 C769 1205.64 769 1208.28 769 1211 C767.68 1211 766.36 1211 765 1211 C765 1212.32 765 1213.64 765 1215 C763.68 1215 762.36 1215 761 1215 C761 1216.32 761 1217.64 761 1219 C759.68 1219 758.36 1219 757 1219 C757 1220.32 757 1221.64 757 1223 C755.68 1223 754.36 1223 753 1223 C753 1224.32 753 1225.64 753 1227 C751.68 1227 750.36 1227 749 1227 C749 1228.32 749 1229.64 749 1231 C747.68 1231 746.36 1231 745 1231 C745 1232.32 745 1233.64 745 1235 C743.68 1235 742.36 1235 741 1235 C741 1235.99 741 1236.98 741 1238 C739.68 1238 738.36 1238 737 1238 C737 1239.32 737 1240.64 737 1242 C735.68 1242 734.36 1242 733 1242 C733 1243.32 733 1244.64 733 1246 C731.68 1246 730.36 1246 729 1246 C729 1247.32 729 1248.64 729 1250 C727.68 1250 726.36 1250 725 1250 C725 1251.32 725 1252.64 725 1254 C723.68 1254 722.36 1254 721 1254 C721 1255.32 721 1256.64 721 1258 C719.68 1258 718.36 1258 717 1258 C717 1259.32 717 1260.64 717 1262 C714.69 1262 712.38 1262 710 1262 C710 1263.32 710 1264.64 710 1266 C708.68 1266 707.36 1266 706 1266 C706 1267.32 706 1268.64 706 1270 C704.68 1270 703.36 1270 702 1270 C702 1271.32 702 1272.64 702 1274 C700.68 1274 699.36 1274 698 1274 C698 1275.32 698 1276.64 698 1278 C695.36 1278 692.72 1278 690 1278 C690 1279.32 690 1280.64 690 1282 C688.68 1282 687.36 1282 686 1282 C686 1283.32 686 1284.64 686 1286 C683.36 1286 680.72 1286 678 1286 C678 1287.32 678 1288.64 678 1290 C676.68 1290 675.36 1290 674 1290 C674 1291.32 674 1292.64 674 1294 C671.36 1294 668.72 1294 666 1294 C666 1295.32 666 1296.64 666 1298 C664.68 1298 663.36 1298 662 1298 C662 1299.32 662 1300.64 662 1302 C659.36 1302 656.72 1302 654 1302 C654 1303.32 654 1304.64 654 1306 C651.36 1306 648.72 1306 646 1306 C646 1306.99 646 1307.98 646 1309 C643.69 1309 641.38 1309 639 1309 C639 1310.32 639 1311.64 639 1313 C636.36 1313 633.72 1313 631 1313 C631 1314.32 631 1315.64 631 1317 C629.68 1317 628.36 1317 627 1317 C627 1318.32 627 1319.64 627 1321 C624.36 1321 621.72 1321 619 1321 C619 1322.32 619 1323.64 619 1325 C615.04 1325 611.08 1325 607 1325 C607 1326.32 607 1327.64 607 1329 C604.36 1329 601.72 1329 599 1329 C599 1330.32 599 1331.64 599 1333 C595.04 1333 591.08 1333 587 1333 C587 1334.32 587 1335.64 587 1337 C583.04 1337 579.08 1337 575 1337 C575 1338.32 575 1339.64 575 1341 C572.69 1341 570.38 1341 568 1341 C568 1342.32 568 1343.64 568 1345 C562.72 1345 557.44 1345 552 1345 C552 1346.32 552 1347.64 552 1349 C545.4 1349 538.8 1349 532 1349 C532 1350.32 532 1351.64 532 1353 C526.72 1353 521.44 1353 516 1353 C516 1354.32 516 1355.64 516 1357 C508.41 1357 500.82 1357 493 1357 C493 1358.32 493 1359.64 493 1361 C330.31 1361 167.62 1361 0 1361 C0 1148.81 0 936.62 0 718 C80.52 718 161.04 718 244 718 C244 693.25 244 668.5 244 643 C163.48 643 82.96 643 0 643 C0 430.81 0 218.62 0 0 Z " fill="#000000" transform="translate(1994,505)"/>
<path d="M0 0 C19.47 0 38.94 0 59 0 C59 1.32 59 2.64 59 4 C68.24 4 77.48 4 87 4 C87 5.32 87 6.64 87 8 C93.6 8 100.2 8 107 8 C107 9.32 107 10.64 107 12 C111.95 12 116.9 12 122 12 C122 13.32 122 14.64 122 16 C125.96 16 129.92 16 134 16 C134 17.32 134 18.64 134 20 C139.28 20 144.56 20 150 20 C150 21.32 150 22.64 150 24 C152.64 24 155.28 24 158 24 C158 24.99 158 25.98 158 27 C160.64 27 163.28 27 166 27 C166 28.32 166 29.64 166 31 C169.96 31 173.92 31 178 31 C178 32.32 178 33.64 178 35 C180.31 35 182.62 35 185 35 C185 36.32 185 37.64 185 39 C187.64 39 190.28 39 193 39 C193 40.32 193 41.64 193 43 C195.64 43 198.28 43 201 43 C201 44.32 201 45.64 201 47 C202.32 47 203.64 47 205 47 C205 48.32 205 49.64 205 51 C207.64 51 210.28 51 213 51 C213 52.32 213 53.64 213 55 C215.64 55 218.28 55 221 55 C221 56.32 221 57.64 221 59 C222.32 59 223.64 59 225 59 C225 60.32 225 61.64 225 63 C227.64 63 230.28 63 233 63 C233 64.32 233 65.64 233 67 C234.32 67 235.64 67 237 67 C237 68.32 237 69.64 237 71 C238.32 71 239.64 71 241 71 C241 72.32 241 73.64 241 75 C243.64 75 246.28 75 249 75 C249 76.32 249 77.64 249 79 C250.32 79 251.64 79 253 79 C253 80.32 253 81.64 253 83 C253.99 83 254.98 83 256 83 C256 84.32 256 85.64 256 87 C257.32 87 258.64 87 260 87 C260 88.32 260 89.64 260 91 C261.32 91 262.64 91 264 91 C264 92.32 264 93.64 264 95 C265.32 95 266.64 95 268 95 C268 95.99 268 96.98 268 98 C269.32 98 270.64 98 272 98 C272 99.32 272 100.64 272 102 C273.32 102 274.64 102 276 102 C276 103.32 276 104.64 276 106 C277.32 106 278.64 106 280 106 C280 108.64 280 111.28 280 114 C281.32 114 282.64 114 284 114 C284 115.32 284 116.64 284 118 C285.32 118 286.64 118 288 118 C288 119.32 288 120.64 288 122 C289.32 122 290.64 122 292 122 C292 124.64 292 127.28 292 130 C293.32 130 294.64 130 296 130 C296 131.32 296 132.64 296 134 C297.32 134 298.64 134 300 134 C300 136.64 300 139.28 300 142 C301.32 142 302.64 142 304 142 C304 144.64 304 147.28 304 150 C305.32 150 306.64 150 308 150 C308 152.64 308 155.28 308 158 C309.32 158 310.64 158 312 158 C312 160.64 312 163.28 312 166 C313.32 166 314.64 166 316 166 C316 168.31 316 170.62 316 173 C317.32 173 318.64 173 320 173 C320 175.64 320 178.28 320 181 C321.32 181 322.64 181 324 181 C324 184.96 324 188.92 324 193 C324.99 193 325.98 193 327 193 C327 198.28 327 203.56 327 209 C328.32 209 329.64 209 331 209 C331 211.64 331 214.28 331 217 C332.32 217 333.64 217 335 217 C335 222.28 335 227.56 335 233 C336.32 233 337.64 233 339 233 C339 266.66 339 300.32 339 335 C337.68 335 336.36 335 335 335 C335 342.92 335 350.84 335 359 C333.68 359 332.36 359 331 359 C331 362.96 331 366.92 331 371 C329.68 371 328.36 371 327 371 C327 375.95 327 380.9 327 386 C326.01 386 325.02 386 324 386 C324 387.32 324 388.64 324 390 C322.68 390 321.36 390 320 390 C320 393.96 320 397.92 320 402 C318.68 402 317.36 402 316 402 C316 404.64 316 407.28 316 410 C314.68 410 313.36 410 312 410 C312 412.64 312 415.28 312 418 C310.68 418 309.36 418 308 418 C308 420.64 308 423.28 308 426 C306.68 426 305.36 426 304 426 C304 428.64 304 431.28 304 434 C302.68 434 301.36 434 300 434 C300 436.64 300 439.28 300 442 C298.68 442 297.36 442 296 442 C296 443.32 296 444.64 296 446 C294.68 446 293.36 446 292 446 C292 448.31 292 450.62 292 453 C290.68 453 289.36 453 288 453 C288 454.32 288 455.64 288 457 C286.68 457 285.36 457 284 457 C284 459.64 284 462.28 284 465 C282.68 465 281.36 465 280 465 C280 466.32 280 467.64 280 469 C278.68 469 277.36 469 276 469 C276 470.32 276 471.64 276 473 C274.68 473 273.36 473 272 473 C272 474.32 272 475.64 272 477 C270.68 477 269.36 477 268 477 C268 478.32 268 479.64 268 481 C266.68 481 265.36 481 264 481 C264 482.32 264 483.64 264 485 C262.68 485 261.36 485 260 485 C260 486.32 260 487.64 260 489 C258.68 489 257.36 489 256 489 C256 490.32 256 491.64 256 493 C255.01 493 254.02 493 253 493 C253 494.32 253 495.64 253 497 C251.68 497 250.36 497 249 497 C249 498.32 249 499.64 249 501 C247.68 501 246.36 501 245 501 C245 502.32 245 503.64 245 505 C243.68 505 242.36 505 241 505 C241 506.32 241 507.64 241 509 C239.68 509 238.36 509 237 509 C237 510.32 237 511.64 237 513 C235.68 513 234.36 513 233 513 C233 514.32 233 515.64 233 517 C230.36 517 227.72 517 225 517 C225 518.32 225 519.64 225 521 C223.68 521 222.36 521 221 521 C221 521.99 221 522.98 221 524 C219.68 524 218.36 524 217 524 C217 525.32 217 526.64 217 528 C214.36 528 211.72 528 209 528 C209 529.32 209 530.64 209 532 C207.68 532 206.36 532 205 532 C205 533.32 205 534.64 205 536 C202.36 536 199.72 536 197 536 C197 537.32 197 538.64 197 540 C194.36 540 191.72 540 189 540 C189 541.32 189 542.64 189 544 C186.69 544 184.38 544 182 544 C182 545.32 182 546.64 182 548 C179.36 548 176.72 548 174 548 C174 549.32 174 550.64 174 552 C171.36 552 168.72 552 166 552 C166 553.32 166 554.64 166 556 C163.36 556 160.72 556 158 556 C158 557.32 158 558.64 158 560 C155.36 560 152.72 560 150 560 C150 561.32 150 562.64 150 564 C143.4 564 136.8 564 130 564 C130 565.32 130 566.64 130 568 C126.04 568 122.08 568 118 568 C118 569.32 118 570.64 118 572 C110.41 572 102.82 572 95 572 C95 573.32 95 574.64 95 576 C-18.19 576 -131.38 576 -248 576 C-248 457.53 -248 339.06 -248 217 C-213.02 217 -178.04 217 -142 217 C-142 300.16 -142 383.32 -142 469 C-62.47 469 17.06 469 99 469 C99 467.68 99 466.36 99 465 C103.95 465 108.9 465 114 465 C114 463.68 114 462.36 114 461 C116.64 461 119.28 461 122 461 C122 459.68 122 458.36 122 457 C125.96 457 129.92 457 134 457 C134 455.68 134 454.36 134 453 C136.64 453 139.28 453 142 453 C142 452.01 142 451.02 142 450 C144.64 450 147.28 450 150 450 C150 448.68 150 447.36 150 446 C152.64 446 155.28 446 158 446 C158 444.68 158 443.36 158 442 C159.32 442 160.64 442 162 442 C162 440.68 162 439.36 162 438 C164.64 438 167.28 438 170 438 C170 436.68 170 435.36 170 434 C171.32 434 172.64 434 174 434 C174 432.68 174 431.36 174 430 C175.32 430 176.64 430 178 430 C178 428.68 178 427.36 178 426 C180.31 426 182.62 426 185 426 C185 424.68 185 423.36 185 422 C186.32 422 187.64 422 189 422 C189 420.68 189 419.36 189 418 C190.32 418 191.64 418 193 418 C193 416.68 193 415.36 193 414 C194.32 414 195.64 414 197 414 C197 412.68 197 411.36 197 410 C198.32 410 199.64 410 201 410 C201 408.68 201 407.36 201 406 C202.32 406 203.64 406 205 406 C205 403.36 205 400.72 205 398 C206.32 398 207.64 398 209 398 C209 396.68 209 395.36 209 394 C210.32 394 211.64 394 213 394 C213 392.68 213 391.36 213 390 C214.32 390 215.64 390 217 390 C217 388.68 217 387.36 217 386 C218.32 386 219.64 386 221 386 C221 383.69 221 381.38 221 379 C222.32 379 223.64 379 225 379 C225 376.36 225 373.72 225 371 C226.32 371 227.64 371 229 371 C229 368.36 229 365.72 229 363 C230.32 363 231.64 363 233 363 C233 361.68 233 360.36 233 359 C234.32 359 235.64 359 237 359 C237 356.36 237 353.72 237 351 C238.32 351 239.64 351 241 351 C241 345.72 241 340.44 241 335 C242.32 335 243.64 335 245 335 C245 332.36 245 329.72 245 327 C246.32 327 247.64 327 249 327 C249 318.09 249 309.18 249 300 C250.32 300 251.64 300 253 300 C253 282.84 253 265.68 253 248 C251.68 248 250.36 248 249 248 C249 241.73 249 235.46 249 229 C247.68 229 246.36 229 245 229 C245 222.4 245 215.8 245 209 C243.68 209 242.36 209 241 209 C241 206.36 241 203.72 241 201 C239.68 201 238.36 201 237 201 C237 198.36 237 195.72 237 193 C235.68 193 234.36 193 233 193 C233 190.36 233 187.72 233 185 C231.68 185 230.36 185 229 185 C229 182.36 229 179.72 229 177 C227.68 177 226.36 177 225 177 C225 174.36 225 171.72 225 169 C223.68 169 222.36 169 221 169 C221 168.01 221 167.02 221 166 C219.68 166 218.36 166 217 166 C217 163.36 217 160.72 217 158 C215.68 158 214.36 158 213 158 C213 156.68 213 155.36 213 154 C211.68 154 210.36 154 209 154 C209 152.68 209 151.36 209 150 C207.68 150 206.36 150 205 150 C205 147.36 205 144.72 205 142 C203.68 142 202.36 142 201 142 C201 140.68 201 139.36 201 138 C199.68 138 198.36 138 197 138 C197 136.68 197 135.36 197 134 C195.68 134 194.36 134 193 134 C193 132.68 193 131.36 193 130 C191.68 130 190.36 130 189 130 C189 128.68 189 127.36 189 126 C187.68 126 186.36 126 185 126 C185 124.68 185 123.36 185 122 C182.69 122 180.38 122 178 122 C178 120.68 178 119.36 178 118 C176.68 118 175.36 118 174 118 C174 116.68 174 115.36 174 114 C172.68 114 171.36 114 170 114 C170 112.68 170 111.36 170 110 C167.36 110 164.72 110 162 110 C162 108.68 162 107.36 162 106 C160.68 106 159.36 106 158 106 C158 104.68 158 103.36 158 102 C155.36 102 152.72 102 150 102 C150 100.68 150 99.36 150 98 C147.36 98 144.72 98 142 98 C142 97.01 142 96.02 142 95 C139.36 95 136.72 95 134 95 C134 93.68 134 92.36 134 91 C131.36 91 128.72 91 126 91 C126 89.68 126 88.36 126 87 C122.04 87 118.08 87 114 87 C114 85.68 114 84.36 114 83 C109.05 83 104.1 83 99 83 C99 81.68 99 80.36 99 79 C89.76 79 80.52 79 71 79 C71 77.68 71 76.36 71 75 C47.57 75 24.14 75 0 75 C0 50.25 0 25.5 0 0 Z " fill="#FEFEFE" transform="translate(2380,1148)"/>
<path d="M0 0 C113.19 0 226.38 0 343 0 C343 1.32 343 2.64 343 4 C349.27 4 355.54 4 362 4 C362 5.32 362 6.64 362 8 C367.28 8 372.56 8 378 8 C378 9.32 378 10.64 378 12 C380.64 12 383.28 12 386 12 C386 13.32 386 14.64 386 16 C391.28 16 396.56 16 402 16 C402 17.32 402 18.64 402 20 C404.64 20 407.28 20 410 20 C410 21.32 410 22.64 410 24 C412.64 24 415.28 24 418 24 C418 25.32 418 26.64 418 28 C420.64 28 423.28 28 426 28 C426 28.99 426 29.98 426 31 C428.31 31 430.62 31 433 31 C433 32.32 433 33.64 433 35 C435.64 35 438.28 35 441 35 C441 36.32 441 37.64 441 39 C442.32 39 443.64 39 445 39 C445 40.32 445 41.64 445 43 C447.64 43 450.28 43 453 43 C453 44.32 453 45.64 453 47 C455.64 47 458.28 47 461 47 C461 48.32 461 49.64 461 51 C462.32 51 463.64 51 465 51 C465 52.32 465 53.64 465 55 C466.32 55 467.64 55 469 55 C469 56.32 469 57.64 469 59 C471.64 59 474.28 59 477 59 C477 60.32 477 61.64 477 63 C478.32 63 479.64 63 481 63 C481 64.32 481 65.64 481 67 C482.32 67 483.64 67 485 67 C485 68.32 485 69.64 485 71 C486.32 71 487.64 71 489 71 C489 72.32 489 73.64 489 75 C490.32 75 491.64 75 493 75 C493 76.32 493 77.64 493 79 C494.32 79 495.64 79 497 79 C497 80.32 497 81.64 497 83 C497.99 83 498.98 83 500 83 C500 84.32 500 85.64 500 87 C501.32 87 502.64 87 504 87 C504 88.32 504 89.64 504 91 C505.32 91 506.64 91 508 91 C508 92.32 508 93.64 508 95 C509.32 95 510.64 95 512 95 C512 96.32 512 97.64 512 99 C513.32 99 514.64 99 516 99 C516 99.99 516 100.98 516 102 C517.32 102 518.64 102 520 102 C520 103.32 520 104.64 520 106 C521.32 106 522.64 106 524 106 C524 108.64 524 111.28 524 114 C525.32 114 526.64 114 528 114 C528 115.32 528 116.64 528 118 C529.32 118 530.64 118 532 118 C532 119.32 532 120.64 532 122 C533.32 122 534.64 122 536 122 C536 124.64 536 127.28 536 130 C537.32 130 538.64 130 540 130 C540 131.32 540 132.64 540 134 C541.32 134 542.64 134 544 134 C544 136.64 544 139.28 544 142 C545.32 142 546.64 142 548 142 C548 144.64 548 147.28 548 150 C549.32 150 550.64 150 552 150 C552 152.64 552 155.28 552 158 C553.32 158 554.64 158 556 158 C556 160.64 556 163.28 556 166 C557.32 166 558.64 166 560 166 C560 168.31 560 170.62 560 173 C561.32 173 562.64 173 564 173 C564 175.64 564 178.28 564 181 C565.32 181 566.64 181 568 181 C568 184.96 568 188.92 568 193 C568.99 193 569.98 193 571 193 C571 196.96 571 200.92 571 205 C572.32 205 573.64 205 575 205 C575 208.96 575 212.92 575 217 C576.32 217 577.64 217 579 217 C579 224.92 579 232.84 579 241 C580.32 241 581.64 241 583 241 C583 272.02 583 303.04 583 335 C581.68 335 580.36 335 579 335 C579 341.6 579 348.2 579 355 C577.68 355 576.36 355 575 355 C575 360.28 575 365.56 575 371 C573.68 371 572.36 371 571 371 C571 375.95 571 380.9 571 386 C570.01 386 569.02 386 568 386 C568 387.32 568 388.64 568 390 C566.68 390 565.36 390 564 390 C564 393.96 564 397.92 564 402 C562.68 402 561.36 402 560 402 C560 405.96 560 409.92 560 414 C558.68 414 557.36 414 556 414 C556 416.64 556 419.28 556 422 C554.68 422 553.36 422 552 422 C552 423.32 552 424.64 552 426 C550.68 426 549.36 426 548 426 C548 428.64 548 431.28 548 434 C546.68 434 545.36 434 544 434 C544 435.32 544 436.64 544 438 C541.36 438 538.72 438 536 438 C536 436.68 536 435.36 536 434 C533.36 434 530.72 434 528 434 C528 432.68 528 431.36 528 430 C525.36 430 522.72 430 520 430 C520 428.68 520 427.36 520 426 C518.68 426 517.36 426 516 426 C516 424.68 516 423.36 516 422 C513.36 422 510.72 422 508 422 C508 420.68 508 419.36 508 418 C505.36 418 502.72 418 500 418 C500 416.68 500 415.36 500 414 C496.37 414 492.74 414 489 414 C489 412.68 489 411.36 489 410 C487.68 410 486.36 410 485 410 C485 408.68 485 407.36 485 406 C482.36 406 479.72 406 477 406 C477 404.68 477 403.36 477 402 C474.36 402 471.72 402 469 402 C469 400.68 469 399.36 469 398 C470.32 398 471.64 398 473 398 C473 395.36 473 392.72 473 390 C474.32 390 475.64 390 477 390 C477 388.68 477 387.36 477 386 C478.32 386 479.64 386 481 386 C481 382.37 481 378.74 481 375 C482.32 375 483.64 375 485 375 C485 371.04 485 367.08 485 363 C486.32 363 487.64 363 489 363 C489 357.72 489 352.44 489 347 C490.32 347 491.64 347 493 347 C493 340.4 493 333.8 493 327 C494.32 327 495.64 327 497 327 C497 311.49 497 295.98 497 280 C495.68 280 494.36 280 493 280 C493 272.08 493 264.16 493 256 C491.68 256 490.36 256 489 256 C489 249.73 489 243.46 489 237 C487.68 237 486.36 237 485 237 C485 234.36 485 231.72 485 229 C483.68 229 482.36 229 481 229 C481 226.36 481 223.72 481 221 C479.68 221 478.36 221 477 221 C477 218.36 477 215.72 477 213 C475.68 213 474.36 213 473 213 C473 210.36 473 207.72 473 205 C471.68 205 470.36 205 469 205 C469 202.36 469 199.72 469 197 C467.68 197 466.36 197 465 197 C465 195.68 465 194.36 465 193 C463.68 193 462.36 193 461 193 C461 190.36 461 187.72 461 185 C459.68 185 458.36 185 457 185 C457 183.68 457 182.36 457 181 C455.68 181 454.36 181 453 181 C453 179.68 453 178.36 453 177 C451.68 177 450.36 177 449 177 C449 174.69 449 172.38 449 170 C447.68 170 446.36 170 445 170 C445 168.68 445 167.36 445 166 C443.68 166 442.36 166 441 166 C441 164.68 441 163.36 441 162 C439.68 162 438.36 162 437 162 C437 160.68 437 159.36 437 158 C435.68 158 434.36 158 433 158 C433 156.68 433 155.36 433 154 C430.69 154 428.38 154 426 154 C426 152.68 426 151.36 426 150 C424.68 150 423.36 150 422 150 C422 148.68 422 147.36 422 146 C420.68 146 419.36 146 418 146 C418 144.68 418 143.36 418 142 C416.68 142 415.36 142 414 142 C414 140.68 414 139.36 414 138 C411.36 138 408.72 138 406 138 C406 136.68 406 135.36 406 134 C404.68 134 403.36 134 402 134 C402 132.68 402 131.36 402 130 C399.36 130 396.72 130 394 130 C394 128.68 394 127.36 394 126 C391.36 126 388.72 126 386 126 C386 124.68 386 123.36 386 122 C382.04 122 378.08 122 374 122 C374 120.68 374 119.36 374 118 C371.36 118 368.72 118 366 118 C366 116.68 366 115.36 366 114 C362.37 114 358.74 114 355 114 C355 112.68 355 111.36 355 110 C351.04 110 347.08 110 343 110 C343 108.68 343 107.36 343 106 C263.47 106 183.94 106 102 106 C102 189.49 102 272.98 102 359 C68.34 359 34.68 359 0 359 C0 240.53 0 122.06 0 0 Z " fill="#FEFEFE" transform="translate(2136,647)"/>
<path d="M0 0 C22.11 0 44.22 0 67 0 C67 1.32 67 2.64 67 4 C70.96 4 74.92 4 79 4 C79 5.32 79 6.64 79 8 C81.64 8 84.28 8 87 8 C87 9.32 87 10.64 87 12 C88.32 12 89.64 12 91 12 C91 13.32 91 14.64 91 16 C92.32 16 93.64 16 95 16 C95 17.32 95 18.64 95 20 C96.32 20 97.64 20 99 20 C99 21.32 99 22.64 99 24 C100.32 24 101.64 24 103 24 C103 26.64 103 29.28 103 32 C104.32 32 105.64 32 107 32 C107 35.96 107 39.92 107 44 C108.32 44 109.64 44 111 44 C111 55.55 111 67.1 111 79 C109.68 79 108.36 79 107 79 C107 80.32 107 81.64 107 83 C105.68 83 104.36 83 103 83 C103 85.64 103 88.28 103 91 C101.68 91 100.36 91 99 91 C99 92.32 99 93.64 99 95 C97.68 95 96.36 95 95 95 C95 96.32 95 97.64 95 99 C93.68 99 92.36 99 91 99 C91 100.32 91 101.64 91 103 C89.68 103 88.36 103 87 103 C87 104.32 87 105.64 87 107 C84.36 107 81.72 107 79 107 C79 108.32 79 109.64 79 111 C75.04 111 71.08 111 67 111 C67 112.32 67 113.64 67 115 C44.89 115 22.78 115 0 115 C0 77.05 0 39.1 0 0 Z " fill="#FEFEFE" transform="translate(2380,891)"/>
<path d="M0 0 C23.43 0 46.86 0 71 0 C71 1.32 71 2.64 71 4 C73.64 4 76.28 4 79 4 C79 5.32 79 6.64 79 8 C81.64 8 84.28 8 87 8 C87 9.32 87 10.64 87 12 C88.32 12 89.64 12 91 12 C91 13.32 91 14.64 91 16 C92.32 16 93.64 16 95 16 C95 17.32 95 18.64 95 20 C96.32 20 97.64 20 99 20 C99 20.99 99 21.98 99 23 C100.32 23 101.64 23 103 23 C103 25.64 103 28.28 103 31 C104.32 31 105.64 31 107 31 C107 33.64 107 36.28 107 39 C108.32 39 109.64 39 111 39 C111 52.2 111 65.4 111 79 C109.68 79 108.36 79 107 79 C107 80.32 107 81.64 107 83 C105.68 83 104.36 83 103 83 C103 85.64 103 88.28 103 91 C101.68 91 100.36 91 99 91 C99 91.99 99 92.98 99 94 C97.68 94 96.36 94 95 94 C95 95.32 95 96.64 95 98 C93.68 98 92.36 98 91 98 C91 99.32 91 100.64 91 102 C89.68 102 88.36 102 87 102 C87 103.32 87 104.64 87 106 C84.36 106 81.72 106 79 106 C79 107.32 79 108.64 79 110 C76.36 110 73.72 110 71 110 C71 111.32 71 112.64 71 114 C47.57 114 24.14 114 0 114 C0 76.38 0 38.76 0 0 Z " fill="#FDFDFD" transform="translate(2380,1365)"/>
<path d="M0 0 C106.59 0 213.18 0 323 0 C323 1.32 323 2.64 323 4 C217.73 4 112.46 4 4 4 C4 122.47 4 240.94 4 363 C2.68 363 1.36 363 0 363 C0 243.21 0 123.42 0 0 Z " fill="#7E7E7E" transform="translate(2132,643)"/>
<path d="M0 0 C1.32 0 2.64 0 4 0 C4 212.19 4 424.38 4 643 C2.68 643 1.36 643 0 643 C0 430.81 0 218.62 0 0 Z " fill="#BEBEBE" transform="translate(1990,1223)"/>
<path d="M0 0 C1.32 0 2.64 0 4 0 C4 210.87 4 421.74 4 639 C2.68 639 1.36 639 0 639 C0 428.13 0 217.26 0 0 Z " fill="#BEBEBE" transform="translate(1990,505)"/>
<path d="M0 0 C150.81 0 301.62 0 457 0 C457 1.32 457 2.64 457 4 C306.19 4 155.38 4 0 4 C0 2.68 0 1.36 0 0 Z " fill="#BFBFBF" transform="translate(1994,1866)"/>
<path d="M0 0 C1.32 0 2.64 0 4 0 C4 118.47 4 236.94 4 359 C2.68 359 1.36 359 0 359 C0 240.53 0 122.06 0 0 Z " fill="#7F7F7F" transform="translate(2132,1365)"/>
<path d="M0 0 C106.59 0 213.18 0 323 0 C323 1.32 323 2.64 323 4 C216.41 4 109.82 4 0 4 C0 2.68 0 1.36 0 0 Z " fill="#7F7F7F" transform="translate(2136,1724)"/>
<path d="M0 0 C106.59 0 213.18 0 323 0 C323 1.32 323 2.64 323 4 C216.41 4 109.82 4 0 4 C0 2.68 0 1.36 0 0 Z " fill="#404040" transform="translate(2132,643)"/>
<path d="M0 0 C80.52 0 161.04 0 244 0 C244 1.32 244 2.64 244 4 C163.48 4 82.96 4 0 4 C0 2.68 0 1.36 0 0 Z " fill="#3F3F3F" transform="translate(1994,1223)"/>
<path d="M0 0 C80.52 0 161.04 0 244 0 C244 1.32 244 2.64 244 4 C163.48 4 82.96 4 0 4 C0 2.68 0 1.36 0 0 Z " fill="#7F7F7F" transform="translate(1994,1144)"/>
<path d="M0 0 C74.25 0 148.5 0 225 0 C225 1.32 225 2.64 225 4 C150.75 4 76.5 4 0 4 C0 2.68 0 1.36 0 0 Z " fill="#7F7F7F" transform="translate(2238,1617)"/>
<path d="M0 0 C68.97 0 137.94 0 209 0 C209 1.32 209 2.64 209 4 C140.03 4 71.06 4 0 4 C0 2.68 0 1.36 0 0 Z " fill="#7E7E7E" transform="translate(2238,749)"/>
<path d="M0 0 C1.32 0 2.64 0 4 0 C4 24.75 4 49.5 4 75 C27.43 75 50.86 75 75 75 C75 76.32 75 77.64 75 79 C50.25 79 25.5 79 0 79 C0 52.93 0 26.86 0 0 Z " fill="#3F3F3F" transform="translate(2376,1148)"/>
<path d="M0 0 C1.32 0 2.64 0 4 0 C4 37.95 4 75.9 4 115 C2.68 115 1.36 115 0 115 C0 77.05 0 39.1 0 0 Z " fill="#3E3E3E" transform="translate(2376,891)"/>
<path d="M0 0 C1.32 0 2.64 0 4 0 C4 37.62 4 75.24 4 114 C2.68 114 1.36 114 0 114 C0 76.38 0 38.76 0 0 Z " fill="#3F3F3F" transform="translate(2376,1365)"/>
<path d="M0 0 C33.66 0 67.32 0 102 0 C102 1.32 102 2.64 102 4 C68.34 4 34.68 4 0 4 C0 2.68 0 1.36 0 0 Z " fill="#BFBFBF" transform="translate(2136,1002)"/>
<path d="M0 0 C23.43 0 46.86 0 71 0 C71 1.32 71 2.64 71 4 C47.57 4 24.14 4 0 4 C0 2.68 0 1.36 0 0 Z " fill="#BCBCBC" transform="translate(2380,1475)"/>
<path d="M0 0 C23.43 0 46.86 0 71 0 C71 1.32 71 2.64 71 4 C47.57 4 24.14 4 0 4 C0 2.68 0 1.36 0 0 Z " fill="#BDBDBD" transform="translate(2380,1365)"/>
<path d="M0 0 C23.43 0 46.86 0 71 0 C71 1.32 71 2.64 71 4 C47.57 4 24.14 4 0 4 C0 2.68 0 1.36 0 0 Z " fill="#808080" transform="translate(2380,1223)"/>
<path d="M0 0 C22.11 0 44.22 0 67 0 C67 1.32 67 2.64 67 4 C44.89 4 22.78 4 0 4 C0 2.68 0 1.36 0 0 Z " fill="#BFBFBF" transform="translate(2380,1002)"/>
<path d="M0 0 C22.11 0 44.22 0 67 0 C67 1.32 67 2.64 67 4 C44.89 4 22.78 4 0 4 C0 2.68 0 1.36 0 0 Z " fill="#BFBFBF" transform="translate(2380,891)"/>
<path d="M0 0 C1.32 0 2.64 0 4 0 C4 20.79 4 41.58 4 63 C2.68 63 1.36 63 0 63 C0 42.21 0 21.42 0 0 Z " fill="#7F7F7F" transform="translate(2719,1404)"/>
<path d="M0 0 C1.32 0 2.64 0 4 0 C4 20.79 4 41.58 4 63 C2.68 63 1.36 63 0 63 C0 42.21 0 21.42 0 0 Z " fill="#7C7C7C" transform="translate(2719,903)"/>
<path d="M0 0 C68.97 0 137.94 0 209 0 C209 1.32 209 2.64 209 4 C207.35 3.67 205.7 3.34 204 3 C204 2.34 204 1.68 204 1 C137.34 1 70.68 1 2 1 C2 1.99 2 2.98 2 4 C1.34 4 0.68 4 0 4 C0 2.68 0 1.36 0 0 Z " fill="#858585" transform="translate(2238,749)"/>
<path d="M0 0 C1.32 0 2.64 0 4 0 C4 18.15 4 36.3 4 55 C2.68 55 1.36 55 0 55 C0 36.85 0 18.7 0 0 Z " fill="#BFBFBF" transform="translate(2861,1408)"/>
<path d="M0 0 C1.32 0 2.64 0 4 0 C4 18.15 4 36.3 4 55 C2.68 55 1.36 55 0 55 C0 36.85 0 18.7 0 0 Z " fill="#BFBFBF" transform="translate(2861,907)"/>
<path d="M0 0 C23.43 0 46.86 0 71 0 C71 1.32 71 2.64 71 4 C67.37 4 63.74 4 60 4 C59.505 3.01 59.505 3.01 59 2 C40.85 2 22.7 2 4 2 C3.67 2.66 3.34 3.32 3 4 C2.01 4 1.02 4 0 4 C0 2.68 0 1.36 0 0 Z " fill="#C1C1C1" transform="translate(2380,1475)"/>
<path d="M0 0 C9.24 0 18.48 0 28 0 C28 1.32 28 2.64 28 4 C18.76 4 9.52 4 0 4 C0 2.68 0 1.36 0 0 Z " fill="#3F3F3F" transform="translate(2380,1144)"/>
<path d="M0 0 C7.92 0 15.84 0 24 0 C24 1.32 24 2.64 24 4 C16.08 4 8.16 4 0 4 C0 2.68 0 1.36 0 0 Z " fill="#363636" transform="translate(2459,505)"/>
<path d="M0 0 C1.32 0 2.64 0 4 0 C4 2.64 4 5.28 4 8 C5.32 8 6.64 8 8 8 C8 10.64 8 13.28 8 16 C6.68 16 5.36 16 4 16 C3.67 14.35 3.34 12.7 3 11 C1.68 11 0.36 11 -1 11 C-1 10.34 -1 9.68 -1 9 C-1.66 8.67 -2.32 8.34 -3 8 C-2.01 8 -1.02 8 0 8 C0 5.36 0 2.72 0 0 Z " fill="#2B2B2B" transform="translate(2830,773)"/>
<path d="M0 0 C6.6 0 13.2 0 20 0 C20 1.32 20 2.64 20 4 C13.4 4 6.8 4 0 4 C0 2.68 0 1.36 0 0 Z " fill="#454545" transform="translate(2467,1862)"/>
<path d="M0 0 C2.97 0.495 2.97 0.495 6 1 C6.33 2.65 6.66 4.3 7 6 C5.68 6.33 4.36 6.66 3 7 C3.33 7.99 3.66 8.98 4 10 C3.01 10.495 3.01 10.495 2 11 C-0.03144641 10.06553465 -2.03533587 9.06775224 -4 8 C-4 6.68 -4 5.36 -4 4 C-2.68 4 -1.36 4 0 4 C0 2.68 0 1.36 0 0 Z " fill="#2F2F2F" transform="translate(2629,1645)"/>
<path d="M0 0 C1.32 0 2.64 0 4 0 C5.25 6.625 5.25 6.625 3 10 C2.38125 9.835 1.7625 9.67 1.125 9.5 C-0.96063386 8.92365356 -0.96063386 8.92365356 -3 9 C-3.495 9.495 -3.99 9.99 -4.5 10.5 C-4.995 10.995 -5.49 11.49 -6 12 C-6.66 12 -7.32 12 -8 12 C-8 10.68 -8 9.36 -8 8 C-6.68 8 -5.36 8 -4 8 C-4 6.68 -4 5.36 -4 4 C-2.68 4 -1.36 4 0 4 C0 2.68 0 1.36 0 0 Z " fill="#CCCCCC" transform="translate(2558,1574)"/>
<path d="M0 0 C1.9453125 -0.29296875 1.9453125 -0.29296875 4.125 -0.1875 C5.40375 -0.125625 6.6825 -0.06375 8 0 C8 1.32 8 2.64 8 4 C5.36 4 2.72 4 0 4 C0 5.32 0 6.64 0 8 C-2.64 8 -5.28 8 -8 8 C-8 6.68 -8 5.36 -8 4 C-7.05125 3.896875 -6.1025 3.79375 -5.125 3.6875 C-1.70892499 3.31460705 -1.70892499 3.31460705 0 0 Z " fill="#C5C5C5" transform="translate(2530,1704)"/>
<path d="M0 0 C1.32 0 2.64 0 4 0 C4 4.29 4 8.58 4 13 C4.66 13.33 5.32 13.66 6 14 C5.34 14 4.68 14 4 14 C3.67 14.99 3.34 15.98 3 17 C2.01 16.67 1.02 16.34 0 16 C0 10.72 0 5.44 0 0 Z " fill="#D9D9D9" transform="translate(2853,1010)"/>
<path d="M0 0 C1.32 0 2.64 0 4 0 C4 5.28 4 10.56 4 16 C2.68 16 1.36 16 0 16 C0 10.72 0 5.44 0 0 Z " fill="#878787" transform="translate(2857,1479)"/>
<path d="M0 0 C5.28 0 10.56 0 16 0 C16 1.32 16 2.64 16 4 C10.72 4 5.44 4 0 4 C0 2.68 0 1.36 0 0 Z " fill="#878787" transform="translate(2423,1148)"/>
<path d="M0 0 C1.32 0 2.64 0 4 0 C4 5.28 4 10.56 4 16 C2.68 16 1.36 16 0 16 C0 10.72 0 5.44 0 0 Z " fill="#878787" transform="translate(2857,978)"/>
<path d="M0 0 C1.32 0 2.64 0 4 0 C4 5.28 4 10.56 4 16 C2.68 16 1.36 16 0 16 C0 10.72 0 5.44 0 0 Z " fill="#686868" transform="translate(2629,911)"/>
<path d="M0 0 C5.28 0 10.56 0 16 0 C16 1.32 16 2.64 16 4 C10.72 4 5.44 4 0 4 C0 2.68 0 1.36 0 0 Z " fill="#585858" transform="translate(2498,509)"/>
<path d="M0 0 C1.32 0 2.64 0 4 0 C4 2.64 4 5.28 4 8 C4.66 8.33 5.32 8.66 6 9 C2.48812804 11.40814077 0.27343092 12.36629408 -4 12 C-4 10.68 -4 9.36 -4 8 C-2.68 8 -1.36 8 0 8 C0 5.36 0 2.72 0 0 Z " fill="#B4B4B4" transform="translate(2822,1613)"/>
<path d="M0 0 C1.32 0 2.64 0 4 0 C4.33 0.66 4.66 1.32 5 2 C5.66 2.33 6.32 2.66 7 3 C5.74426756 6.8718417 4.63191921 9.02838671 1 11 C-1.75 11.1875 -1.75 11.1875 -4 11 C-4 10.01 -4 9.02 -4 8 C-2.68 8 -1.36 8 0 8 C0 5.36 0 2.72 0 0 Z " fill="#D6D6D6" transform="translate(2585,1546)"/>
<path d="M0 0 C1.32 0 2.64 0 4 0 C4 1.65 4 3.3 4 5 C3.01 5 2.02 5 1 5 C0.67 5.66 0.34 6.32 0 7 C-0.33 6.67 -0.66 6.34 -1 6 C-1.99 6.66 -2.98 7.32 -4 8 C-4.66 7.67 -5.32 7.34 -6 7 C-6.33 7.33 -6.66 7.66 -7 8 C-8.66617115 8.04063832 -10.33388095 8.042721 -12 8 C-12 6.68 -12 5.36 -12 4 C-8.04 4 -4.08 4 0 4 C0 2.68 0 1.36 0 0 Z " fill="#C9C9C9" transform="translate(2514,1601)"/>
<path d="M0 0 C2.49361571 1.20381448 4.68143083 2.45428722 7 4 C6.67 5.32 6.34 6.64 6 8 C3.69 7.67 1.38 7.34 -1 7 C-1 7.66 -1 8.32 -1 9 C-1.99 8.67 -2.98 8.34 -4 8 C-4 6.68 -4 5.36 -4 4 C-2.68 4 -1.36 4 0 4 C0 2.68 0 1.36 0 0 Z " fill="#F5F5F5" transform="translate(2569,1566)"/>
<path d="M0 0 C4.99233599 0.69660502 9.34737778 1.34737778 13 5 C13.33 4.34 13.66 3.68 14 3 C14 3.99 14 4.98 14 6 C11.24921116 6.91692961 9.64051087 7.10886083 6.8125 7.0625 C4.9253125 7.0315625 4.9253125 7.0315625 3 7 C3 6.01 3 5.02 3 4 C2.01 4 1.02 4 0 4 C0 2.68 0 1.36 0 0 Z " fill="#D3D3D3" transform="translate(2704,600)"/>
<path d="M0 0 C4.95 0 9.9 0 15 0 C15 1.32 15 2.64 15 4 C9.72 4 4.44 4 -1 4 C-0.34 3.34 0.32 2.68 1 2 C0.67 1.34 0.34 0.68 0 0 Z " fill="#B5B5B5" transform="translate(2432,1002)"/>
<path d="M0 0 C1.32 0 2.64 0 4 0 C4 3.96 4 7.92 4 12 C3.01 12 2.02 12 1 12 C0.67 12.99 0.34 13.98 0 15 C0 10.05 0 5.1 0 0 Z " fill="#B0B0B0" transform="translate(2857,1373)"/>
<path d="M0 0 C0.66 0.33 1.32 0.66 2 1 C2 1.66 2 2.32 2 3 C2.66 3 3.32 3 4 3 C7 7.38461538 7 7.38461538 7 10 C5.68 10 4.36 10 3 10 C3 8.68 3 7.36 3 6 C0.36 6 -2.28 6 -5 6 C-5 4.68 -5 3.36 -5 2 C-3.35 2 -1.7 2 0 2 C0 1.34 0 0.68 0 0 Z " fill="#252525" transform="translate(2610,1205)"/>
<path d="M0 0 C2.64 0 5.28 0 8 0 C8 1.32 8 2.64 8 4 C5.36 4 2.72 4 0 4 C0 5.32 0 6.64 0 8 C-1.32 8 -2.64 8 -4 8 C-4 6.68 -4 5.36 -4 4 C-3.01 4 -2.02 4 -1 4 C-0.67 2.68 -0.34 1.36 0 0 Z " fill="#606060" transform="translate(2613,1822)"/>
<path d="M0 0 C1.32 0 2.64 0 4 0 C4 0.99 4 1.98 4 3 C5.32 3.33 6.64 3.66 8 4 C8 6.64 8 9.28 8 12 C6.68 12 5.36 12 4 12 C4 9.36 4 6.72 4 4 C2.68 4 1.36 4 0 4 C0 2.68 0 1.36 0 0 Z " fill="#B2B2B2" transform="translate(2609,1329)"/>
<path d="M0 0 C1.32 0 2.64 0 4 0 C4 1.32 4 2.64 4 4 C2.68 4 1.36 4 0 4 C0 6.64 0 9.28 0 12 C-1.32 12 -2.64 12 -4 12 C-4 9.36 -4 6.72 -4 4 C-3.01 4 -2.02 4 -1 4 C-0.67 2.68 -0.34 1.36 0 0 Z " fill="#A8A8A8" transform="translate(2692,1057)"/>
<path d="M0 0 C3.96 0 7.92 0 12 0 C12 1.32 12 2.64 12 4 C8.04 4 4.08 4 0 4 C0 2.68 0 1.36 0 0 Z " fill="#404040" transform="translate(2447,1724)"/>
<path d="M0 0 C3.96 0 7.92 0 12 0 C12 1.32 12 2.64 12 4 C8.04 4 4.08 4 0 4 C0 2.68 0 1.36 0 0 Z " fill="#6A6A6A" transform="translate(2475,1720)"/>
<path d="M0 0 C3.96 0 7.92 0 12 0 C12 1.32 12 2.64 12 4 C8.04 4 4.08 4 0 4 C0 2.68 0 1.36 0 0 Z " fill="#BABABA" transform="translate(2451,1617)"/>
<path d="M0 0 C1.32 0 2.64 0 4 0 C4 2.97 4 5.94 4 9 C3.67 8.34 3.34 7.68 3 7 C2.34 7 1.68 7 1 7 C0.67 8.65 0.34 10.3 0 12 C-1.32 12 -2.64 12 -4 12 C-4 10.68 -4 9.36 -4 8 C-2.68 8 -1.36 8 0 8 C0 5.36 0 2.72 0 0 Z " fill="#AFAFAF" transform="translate(2609,1511)"/>
<path d="M0 0 C1.32 0 2.64 0 4 0 C4 3.96 4 7.92 4 12 C2.68 12 1.36 12 0 12 C0 8.04 0 4.08 0 0 Z " fill="#606060" transform="translate(2853,1507)"/>
<path d="M0 0 C1.32 0 2.64 0 4 0 C4 3.96 4 7.92 4 12 C2.68 12 1.36 12 0 12 C0 8.04 0 4.08 0 0 Z " fill="#656565" transform="translate(2625,1463)"/>
<path d="M0 0 C1.32 0 2.64 0 4 0 C4 3.96 4 7.92 4 12 C2.68 12 1.36 12 0 12 C0 8.04 0 4.08 0 0 Z " fill="#4A4A4A" transform="translate(2719,1404)"/>
<path d="M0 0 C1.32 0 2.64 0 4 0 C4 3.96 4 7.92 4 12 C2.68 12 1.36 12 0 12 C0 8.04 0 4.08 0 0 Z " fill="#353535" transform="translate(2629,1396)"/>
<path d="M0 0 C3.96 0 7.92 0 12 0 C12 1.32 12 2.64 12 4 C8.04 4 4.08 4 0 4 C0 2.68 0 1.36 0 0 Z " fill="#646464" transform="translate(2467,1227)"/>
<path d="M0 0 C3.96 0 7.92 0 12 0 C12 1.32 12 2.64 12 4 C8.04 4 4.08 4 0 4 C0 2.68 0 1.36 0 0 Z " fill="#9F9F9F" transform="translate(2455,1152)"/>
<path d="M0 0 C1.32 0 2.64 0 4 0 C4 3.96 4 7.92 4 12 C2.68 12 1.36 12 0 12 C0 8.04 0 4.08 0 0 Z " fill="#999999" transform="translate(2629,974)"/>
<path d="M0 0 C1.32 0 2.64 0 4 0 C4 3.96 4 7.92 4 12 C2.68 12 1.36 12 0 12 C0 8.04 0 4.08 0 0 Z " fill="#353535" transform="translate(2629,962)"/>
<path d="M0 0 C1.32 0 2.64 0 4 0 C4 3.96 4 7.92 4 12 C2.68 12 1.36 12 0 12 C0 8.04 0 4.08 0 0 Z " fill="#999999" transform="translate(2857,872)"/>
<path d="M0 0 C3.96 0 7.92 0 12 0 C12 1.32 12 2.64 12 4 C8.04 4 4.08 4 0 4 C0 2.68 0 1.36 0 0 Z " fill="#707070" transform="translate(2467,753)"/>
<path d="M0 0 C3.96 0 7.92 0 12 0 C12 1.32 12 2.64 12 4 C8.04 4 4.08 4 0 4 C0 2.68 0 1.36 0 0 Z " fill="#BEBEBE" transform="translate(2447,749)"/>
<path d="M0 0 C1.32 0 2.64 0 4 0 C4.33 0.99 4.66 1.98 5 3 C5.99 3.33 6.98 3.66 8 4 C8 6.64 8 9.28 8 12 C6.68 12 5.36 12 4 12 C4 9.36 4 6.72 4 4 C2.68 4 1.36 4 0 4 C0 2.68 0 1.36 0 0 Z " fill="#A8A8A8" transform="translate(2810,730)"/>
<path d="M0 0 C1.32 0 2.64 0 4 0 C4 2.64 4 5.28 4 8 C5.32 8 6.64 8 8 8 C8 9.32 8 10.64 8 12 C6.68 12 5.36 12 4 12 C3.67 11.34 3.34 10.68 3 10 C2.01 10 1.02 10 0 10 C0.185625 9.278125 0.37125 8.55625 0.5625 7.8125 C1.01995307 4.87173027 0.73516357 2.85896942 0 0 Z " fill="#3C3C3C" transform="translate(2798,710)"/>
<path d="M0 0 C3.96 0 7.92 0 12 0 C12 1.32 12 2.64 12 4 C8.04 4 4.08 4 0 4 C0 2.68 0 1.36 0 0 Z " fill="#9F9F9F" transform="translate(2467,647)"/>
<path d="M0 0 C3.96 0 7.92 0 12 0 C12 1.32 12 2.64 12 4 C8.04 4 4.08 4 0 4 C0 2.68 0 1.36 0 0 Z " fill="#747474" transform="translate(2471,505)"/>
<path d="M0 0 C0.99 0 1.98 0 3 0 C3 1.32 3 2.64 3 4 C5.64 4 8.28 4 11 4 C11 5.32 11 6.64 11 8 C9.68 8 8.36 8 7 8 C7 7.34 7 6.68 7 6 C6.34 6 5.68 6 5 6 C5 6.66 5 7.32 5 8 C4.01 7.67 3.02 7.34 2 7 C2 6.34 2 5.68 2 5 C1.01 4.67 0.02 4.34 -1 4 C-0.67 2.68 -0.34 1.36 0 0 Z " fill="#353535" transform="translate(2633,1061)"/>
<path d="M0 0 C1.32 0 2.64 0 4 0 C4 3.63 4 7.26 4 11 C2.68 11 1.36 11 0 11 C0 7.37 0 3.74 0 0 Z " fill="#474747" transform="translate(2719,1456)"/>
<path d="M0 0 C1.32 0 2.64 0 4 0 C4 3.63 4 7.26 4 11 C2.68 11 1.36 11 0 11 C0 7.37 0 3.74 0 0 Z " fill="#969696" transform="translate(2629,1448)"/>
<path d="M0 0 C1.32 0 2.64 0 4 0 C4 3.63 4 7.26 4 11 C2.68 11 1.36 11 0 11 C0 7.37 0 3.74 0 0 Z " fill="#808080" transform="translate(2715,1381)"/>
<path d="M0 0 C1.32 0 2.64 0 4 0 C4 3.63 4 7.26 4 11 C2.68 11 1.36 11 0 11 C0 7.37 0 3.74 0 0 Z " fill="#9C9C9C" transform="translate(2629,1385)"/>
<path d="M0 0 C1.32 0 2.64 0 4 0 C4 3.63 4 7.26 4 11 C2.68 11 1.36 11 0 11 C0 7.37 0 3.74 0 0 Z " fill="#656565" transform="translate(2849,1026)"/>
<path d="M0 0 C1.32 0 2.64 0 4 0 C4 3.63 4 7.26 4 11 C2.68 11 1.36 11 0 11 C0 7.37 0 3.74 0 0 Z " fill="#3F3F3F" transform="translate(2857,884)"/>
<path d="M0 0 C3.63 0 7.26 0 11 0 C11 1.32 11 2.64 11 4 C7.37 4 3.74 4 0 4 C0 2.68 0 1.36 0 0 Z " fill="#B6B6B6" transform="translate(2487,651)"/>
<path d="M0 0 C0.99 0 1.98 0 3 0 C3 3.63 3 7.26 3 11 C1.68 11 0.36 11 -1 11 C-1.125 3.375 -1.125 3.375 0 0 Z " fill="#404040" transform="translate(2858,1385)"/>
<path d="M0 0 C1.32 0.33 2.64 0.66 4 1 C4 4.3 4 7.6 4 11 C2.68 11 1.36 11 0 11 C0 7.37 0 3.74 0 0 Z " fill="#313131" transform="translate(2376,1216)"/>
<path d="M0 0 C3 1 3 1 6 3 C5.34 3 4.68 3 4 3 C4.33 3.66 4.66 4.32 5 5 C5.99 5.33 6.98 5.66 8 6 C8 6.66 8 7.32 8 8 C8.66 8.33 9.32 8.66 10 9 C8.02 9.33 6.04 9.66 4 10 C4 8.68 4 7.36 4 6 C2.68 6 1.36 6 0 6 C0 4.02 0 2.04 0 0 Z " fill="#111111" transform="translate(2617,708)"/>
<path d="M0 0 C1.32 0 2.64 0 4 0 C4 1.32 4 2.64 4 4 C5.32 4 6.64 4 8 4 C8.33 5.65 8.66 7.3 9 9 C7.68 9 6.36 9 5 9 C4.67 7.68 4.34 6.36 4 5 C2.68 4.67 1.36 4.34 0 4 C0 2.68 0 1.36 0 0 Z " fill="#E4E4E4" transform="translate(2597,698)"/>
<path d="M0 0 C1.32 0 2.64 0 4 0 C4.33 1.32 4.66 2.64 5 4 C5.66 4 6.32 4 7 4 C7.33 3.34 7.66 2.68 8 2 C8.33 3.65 8.66 5.3 9 7 C7.35 7.33 5.7 7.66 4 8 C4 6.68 4 5.36 4 4 C2.68 4 1.36 4 0 4 C0 2.68 0 1.36 0 0 Z " fill="#DCDCDC" transform="translate(2778,678)"/>
<path d="M0 0 C1.32 0 2.64 0 4 0 C4 1.32 4 2.64 4 4 C3.01 4.33 2.02 4.66 1 5 C1 5.99 1 6.98 1 8 C-0.65 8.66 -2.3 9.32 -4 10 C-5.24546405 7.50907189 -4.7767578 6.58919267 -4 4 C-2.68 4 -1.36 4 0 4 C0 2.68 0 1.36 0 0 Z " fill="#1D1D1D" transform="translate(2471,990)"/>
<path d="M0 0 C1.32 0 2.64 0 4 0 C4 1.32 4 2.64 4 4 C2.68 4 1.36 4 0 4 C0 5.32 0 6.64 0 8 C-0.99 8 -1.98 8 -3 8 C-3 7.34 -3 6.68 -3 6 C-3.66 6 -4.32 6 -5 6 C-5 5.34 -5 4.68 -5 4 C-3.35 3.34 -1.7 2.68 0 2 C0 1.34 0 0.68 0 0 Z " fill="#242424" transform="translate(2782,1680)"/>
<path d="M0 0 C2.56687367 3.8503105 1.83288724 5.58569763 1 10 C-0.32 10 -1.64 10 -3 10 C-3.38063221 7.6739143 -3.71269945 5.33944736 -4 3 C-3 2 -3 2 0 0 Z " fill="#2E2E2E" transform="translate(2537,1584)"/>
<path d="M0 0 C1.32 0 2.64 0 4 0 C4 2.64 4 5.28 4 8 C2.02 8.99 2.02 8.99 0 10 C0 6.7 0 3.4 0 0 Z " fill="#383838" transform="translate(2376,1365)"/>
<path d="M0 0 C0.99 0 1.98 0 3 0 C3 3.96 3 7.92 3 12 C2.01 12 1.02 12 0 12 C0 8.04 0 4.08 0 0 Z " fill="#414141" transform="translate(2491,1416)"/>
<path d="M0 0 C3.3 0 6.6 0 10 0 C10 1.32 10 2.64 10 4 C3.9453125 4.1953125 3.9453125 4.1953125 2 4 C1.34 3.34 0.68 2.68 0 2 C-0.33 2.66 -0.66 3.32 -1 4 C-0.67 2.68 -0.34 1.36 0 0 Z " fill="#434343" transform="translate(2603,1049)"/>
<path d="M0 0 C0.99 0 1.98 0 3 0 C3 3.96 3 7.92 3 12 C2.01 12 1.02 12 0 12 C0 8.04 0 4.08 0 0 Z " fill="#404040" transform="translate(2491,943)"/>
<path d="M0 0 C2.64 0 5.28 0 8 0 C8.33 0.66 8.66 1.32 9 2 C7.875 3.5625 7.875 3.5625 6 5 C2.8125 4.6875 2.8125 4.6875 0 4 C0 2.68 0 1.36 0 0 Z " fill="#BCBCBC" transform="translate(2625,1818)"/>
<path d="M0 0 C0 0.66 0 1.32 0 2 C0.66 2 1.32 2 2 2 C1.67 2.99 1.34 3.98 1 5 C-1.64 5 -4.28 5 -7 5 C-7 3.68 -7 2.36 -7 1 C-2.25 0 -2.25 0 0 0 Z " fill="#363636" transform="translate(2628,1218)"/>
<path d="M0 0 C1.32 0 2.64 0 4 0 C4.33 2.64 4.66 5.28 5 8 C3.35 8 1.7 8 0 8 C0 5.36 0 2.72 0 0 Z " fill="#343434" transform="translate(2696,1049)"/>
<path d="M0 0 C0.99 0.33 1.98 0.66 3 1 C4.09658936 4.28976808 3.79953138 5.71303767 3 9 C1.68 9 0.36 9 -1 9 C-1.09765625 2.84765625 -1.09765625 2.84765625 -1 1 C-0.67 0.67 -0.34 0.34 0 0 Z " fill="#D6D6D6" transform="translate(2787,685)"/>
<path d="M0 0 C1.65 0.33 3.3 0.66 5 1 C4.67 1.99 4.34 2.98 4 4 C3.01 4.33 2.02 4.66 1 5 C0.67 5.99 0.34 6.98 0 8 C-1.32 8 -2.64 8 -4 8 C-4 6.68 -4 5.36 -4 4 C-2.68 4 -1.36 4 0 4 C0 2.68 0 1.36 0 0 Z " fill="#EFEFEF" transform="translate(2719,1755)"/>
<path d="M0 0 C1.32 0 2.64 0 4 0 C3.34 1.98 2.68 3.96 2 6 C1.34 6 0.68 6 0 6 C0 6.66 0 7.32 0 8 C-1.32 8 -2.64 8 -4 8 C-4 6.68 -4 5.36 -4 4 C-2.68 4 -1.36 4 0 4 C0 2.68 0 1.36 0 0 Z " fill="#C3C3C3" transform="translate(2798,1661)"/>
<path d="M0 0 C1.32 0 2.64 0 4 0 C4 2.64 4 5.28 4 8 C2.68 8 1.36 8 0 8 C-0.98120464 4.94736336 -0.98120464 3.05263664 0 0 Z " fill="#C1C1C1" transform="translate(2700,1329)"/>
<path d="M0 0 C2.64 0.99 5.28 1.98 8 3 C8 4.65 8 6.3 8 8 C6.68 8 5.36 8 4 8 C4 6.68 4 5.36 4 4 C2.68 4 1.36 4 0 4 C0 2.68 0 1.36 0 0 Z " fill="#E0E0E0" transform="translate(2550,1258)"/>
<path d="M0 0 C1.32 0 2.64 0 4 0 C4 1.32 4 2.64 4 4 C4.66 4.33 5.32 4.66 6 5 C5.34 5 4.68 5 4 5 C4 5.99 4 6.98 4 8 C2.68 8 1.36 8 0 8 C0 5.36 0 2.72 0 0 Z " fill="#BABABA" transform="translate(2609,1037)"/>
<path d="M0 0 C0.66 0.33 1.32 0.66 2 1 C1.67 3.64 1.34 6.28 1 9 C-0.32 9 -1.64 9 -3 9 C-3 6.36 -3 3.72 -3 1 C-2.01 0.67 -1.02 0.34 0 0 Z " fill="#2C2C2C" transform="translate(2710,843)"/>
<path d="M0 0 C2.64 0 5.28 0 8 0 C8 1.32 8 2.64 8 4 C3.545 4.495 3.545 4.495 -1 5 C-0.67 3.35 -0.34 1.7 0 0 Z " fill="#363636" transform="translate(2593,536)"/>
<path d="M0 0 C1.32 0 2.64 0 4 0 C4 2.97 4 5.94 4 9 C2.68 8.67 1.36 8.34 0 8 C0 5.36 0 2.72 0 0 Z " fill="#B8B8B8" transform="translate(2810,1637)"/>
<path d="M0 0 C0 2.64 0 5.28 0 8 C-1.32 8 -2.64 8 -4 8 C-4 6.35 -4 4.7 -4 3 C-4.66 2.67 -5.32 2.34 -6 2 C-3 0 -3 0 0 0 Z " fill="#464646" transform="translate(2818,1625)"/>
<path d="M0 0 C1.32 0.33 2.64 0.66 4 1 C4 1.66 4 2.32 4 3 C3.01 3.495 3.01 3.495 2 4 C1.34786708 6.02463255 1.34786708 6.02463255 1 8 C-0.65 8 -2.3 8 -4 8 C-4 6.68 -4 5.36 -4 4 C-2.68 4 -1.36 4 0 4 C0 2.68 0 1.36 0 0 Z " fill="#262626" transform="translate(2668,1601)"/>
<path d="M0 0 C1.32 0 2.64 0 4 0 C4 1.32 4 2.64 4 4 C2.68 4 1.36 4 0 4 C0 5.32 0 6.64 0 8 C-1.32 7.67 -2.64 7.34 -4 7 C-3.67 5.68 -3.34 4.36 -3 3 C-2.01 3 -1.02 3 0 3 C0 2.01 0 1.02 0 0 Z " fill="#1D1D1D" transform="translate(2593,1534)"/>
<path d="M0 0 C1.32 0 2.64 0 4 0 C4.33 2.64 4.66 5.28 5 8 C3.35 8 1.7 8 0 8 C0 5.36 0 2.72 0 0 Z " fill="#363636" transform="translate(2707,1519)"/>
<path d="M0 0 C2 2 2 2 2.1953125 3.9453125 C2.13020833 5.96354167 2.06510417 7.98177083 2 10 C0.68 10 -0.64 10 -2 10 C-2.6875 6.6875 -2.6875 6.6875 -3 3 C-1.5625 1.0625 -1.5625 1.0625 0 0 Z " fill="#D0D0D0" transform="translate(2709,1509)"/>
<path d="M0 0 C1.32 0 2.64 0 4 0 C4 2.64 4 5.28 4 8 C2.68 8 1.36 8 0 8 C-0.66 7.01 -1.32 6.02 -2 5 C-1.34 5 -0.68 5 0 5 C0 3.35 0 1.7 0 0 Z " fill="#454545" transform="translate(2818,1246)"/>
<path d="M0 0 C1.32 0 2.64 0 4 0 C4 1.32 4 2.64 4 4 C5.32 4 6.64 4 8 4 C8 5.32 8 6.64 8 8 C6.68 8 5.36 8 4 8 C3.67 7.01 3.34 6.02 3 5 C2.01 4.67 1.02 4.34 0 4 C0 2.68 0 1.36 0 0 Z " fill="#C8C8C8" transform="translate(2609,1211)"/>
<path d="M0 0 C1.32 0 2.64 0 4 0 C4 2.64 4 5.28 4 8 C2.68 8 1.36 8 0 8 C-0.38063221 5.6739143 -0.71269945 3.33944736 -1 1 C-0.67 0.67 -0.34 0.34 0 0 Z " fill="#454545" transform="translate(2810,1132)"/>
<path d="M0 0 C1.32 0 2.64 0 4 0 C4 2.97 4 5.94 4 9 C2.68 8.67 1.36 8.34 0 8 C0 5.36 0 2.72 0 0 Z " fill="#363636" transform="translate(2707,1018)"/>
<path d="M0 0 C2.64 0 5.28 0 8 0 C8.33 1.32 8.66 2.64 9 4 C6.03 4 3.06 4 0 4 C0 2.68 0 1.36 0 0 Z " fill="#3F3F3F" transform="translate(2447,1002)"/>
<path d="M0 0 C2.64 0 5.28 0 8 0 C8 1.32 8 2.64 8 4 C6.824375 3.9690625 6.824375 3.9690625 5.625 3.9375 C3.01885039 3.81315937 3.01885039 3.81315937 1 5 C0.34 4.34 -0.32 3.68 -1 3 C-0.67 2.01 -0.34 1.02 0 0 Z " fill="#B8B8B8" transform="translate(2459,899)"/>
<path d="M0 0 C2.64 0 5.28 0 8 0 C8 1.32 8 2.64 8 4 C6.35 4 4.7 4 3 4 C2.67 4.66 2.34 5.32 2 6 C1.34 5.34 0.68 4.68 0 4 C0 2.68 0 1.36 0 0 Z " fill="#C1C1C1" transform="translate(2451,895)"/>
<path d="M0 0 C2.64 0 5.28 0 8 0 C8 1.32 8 2.64 8 4 C5.36 4 2.72 4 0 4 C0 2.68 0 1.36 0 0 Z " fill="#7D7D7D" transform="translate(2479,1862)"/>
<path d="M0 0 C2.64 0 5.28 0 8 0 C8 1.32 8 2.64 8 4 C5.36 4 2.72 4 0 4 C0 2.68 0 1.36 0 0 Z " fill="#606060" transform="translate(2502,1858)"/>
<path d="M0 0 C2.64 0 5.28 0 8 0 C8 1.32 8 2.64 8 4 C5.36 4 2.72 4 0 4 C0 2.68 0 1.36 0 0 Z " fill="#C1C1C1" transform="translate(2510,1858)"/>
<path d="M0 0 C2.64 0 5.28 0 8 0 C8 1.32 8 2.64 8 4 C5.36 4 2.72 4 0 4 C0 2.68 0 1.36 0 0 Z " fill="#9E9E9E" transform="translate(2526,1854)"/>
<path d="M0 0 C2.64 0 5.28 0 8 0 C8 1.32 8 2.64 8 4 C5.36 4 2.72 4 0 4 C0 2.68 0 1.36 0 0 Z " fill="#777777" transform="translate(2554,1846)"/>
<path d="M0 0 C2.64 0 5.28 0 8 0 C8 1.32 8 2.64 8 4 C5.36 4 2.72 4 0 4 C0 2.68 0 1.36 0 0 Z " fill="#CFCFCF" transform="translate(2467,1720)"/>
<path d="M0 0 C2.64 0 5.28 0 8 0 C8 1.32 8 2.64 8 4 C5.36 4 2.72 4 0 4 C0 2.68 0 1.36 0 0 Z " fill="#3F3F3F" transform="translate(2498,1716)"/>
<path d="M0 0 C2.64 0 5.28 0 8 0 C8 1.32 8 2.64 8 4 C5.36 4 2.72 4 0 4 C0 2.68 0 1.36 0 0 Z " fill="#6F6F6F" transform="translate(2510,1712)"/>
<path d="M0 0 C2.64 0 5.28 0 8 0 C8 1.32 8 2.64 8 4 C5.36 4 2.72 4 0 4 C0 2.68 0 1.36 0 0 Z " fill="#767676" transform="translate(2522,1708)"/>
<path d="M0 0 C2.64 0 5.28 0 8 0 C8 1.32 8 2.64 8 4 C5.36 4 2.72 4 0 4 C0 2.68 0 1.36 0 0 Z " fill="#656565" transform="translate(2471,1613)"/>
<path d="M0 0 C1.32 0 2.64 0 4 0 C4 2.64 4 5.28 4 8 C2.68 8 1.36 8 0 8 C0 5.36 0 2.72 0 0 Z " fill="#B5B5B5" transform="translate(2838,1574)"/>
<path d="M0 0 C1.32 0 2.64 0 4 0 C4 2.64 4 5.28 4 8 C2.68 8 1.36 8 0 8 C0 5.36 0 2.72 0 0 Z " fill="#B6B6B6" transform="translate(2842,1562)"/>
<path d="M0 0 C1.32 0 2.64 0 4 0 C4 2.64 4 5.28 4 8 C2.68 8 1.36 8 0 8 C0 5.36 0 2.72 0 0 Z " fill="#474747" transform="translate(2692,1558)"/>
<path d="M0 0 C1.32 0 2.64 0 4 0 C4 2.64 4 5.28 4 8 C2.68 8 1.36 8 0 8 C0 5.36 0 2.72 0 0 Z " fill="#6F6F6F" transform="translate(2700,1538)"/>
<path d="M0 0 C1.32 0 2.64 0 4 0 C4 2.64 4 5.28 4 8 C2.68 8 1.36 8 0 8 C0 5.36 0 2.72 0 0 Z " fill="#808080" transform="translate(2849,1530)"/>
<path d="M0 0 C1.32 0 2.64 0 4 0 C4 2.64 4 5.28 4 8 C2.68 8 1.36 8 0 8 C0 5.36 0 2.72 0 0 Z " fill="#969696" transform="translate(2711,1499)"/>
<path d="M0 0 C1.32 0 2.64 0 4 0 C4 2.64 4 5.28 4 8 C2.68 8 1.36 8 0 8 C0 5.36 0 2.72 0 0 Z " fill="#CDCDCD" transform="translate(2857,1495)"/>
<path d="M0 0 C1.32 0 2.64 0 4 0 C4 2.64 4 5.28 4 8 C2.68 8 1.36 8 0 8 C0 5.36 0 2.72 0 0 Z " fill="#777777" transform="translate(2617,1491)"/>
<path d="M0 0 C1.32 0 2.64 0 4 0 C4 2.64 4 5.28 4 8 C2.68 8 1.36 8 0 8 C0 5.36 0 2.72 0 0 Z " fill="#676767" transform="translate(2715,1483)"/>
<path d="M0 0 C1.32 0 2.64 0 4 0 C4 2.64 4 5.28 4 8 C2.68 8 1.36 8 0 8 C0 5.36 0 2.72 0 0 Z " fill="#B6B6B6" transform="translate(2621,1483)"/>
<path d="M0 0 C1.32 0 2.64 0 4 0 C4 2.64 4 5.28 4 8 C2.68 8 1.36 8 0 8 C0 5.36 0 2.72 0 0 Z " fill="#474747" transform="translate(2857,1479)"/>
<path d="M0 0 C1.32 0 2.64 0 4 0 C4 2.64 4 5.28 4 8 C2.68 8 1.36 8 0 8 C0 5.36 0 2.72 0 0 Z " fill="#BFBFBF" transform="translate(2715,1475)"/>
<path d="M0 0 C2.64 0 5.28 0 8 0 C8 1.32 8 2.64 8 4 C5.36 4 2.72 4 0 4 C0 2.68 0 1.36 0 0 Z " fill="#757575" transform="translate(2443,1475)"/>
<path d="M0 0 C1.32 0 2.64 0 4 0 C4 2.64 4 5.28 4 8 C2.68 8 1.36 8 0 8 C0 5.36 0 2.72 0 0 Z " fill="#404040" transform="translate(2629,1440)"/>
<path d="M0 0 C1.32 0 2.64 0 4 0 C4 2.64 4 5.28 4 8 C2.68 8 1.36 8 0 8 C0 5.36 0 2.72 0 0 Z " fill="#878787" transform="translate(2487,1436)"/>
<path d="M0 0 C1.32 0 2.64 0 4 0 C4 2.64 4 5.28 4 8 C2.68 8 1.36 8 0 8 C0 5.36 0 2.72 0 0 Z " fill="#909090" transform="translate(2625,1369)"/>
<path d="M0 0 C1.32 0 2.64 0 4 0 C4 2.64 4 5.28 4 8 C2.68 8 1.36 8 0 8 C0 5.36 0 2.72 0 0 Z " fill="#8E8E8E" transform="translate(2711,1365)"/>
<path d="M0 0 C2.64 0 5.28 0 8 0 C8 1.32 8 2.64 8 4 C5.36 4 2.72 4 0 4 C0 2.68 0 1.36 0 0 Z " fill="#676767" transform="translate(2443,1365)"/>
<path d="M0 0 C1.32 0 2.64 0 4 0 C4 2.64 4 5.28 4 8 C2.68 8 1.36 8 0 8 C0 5.36 0 2.72 0 0 Z " fill="#505050" transform="translate(2853,1357)"/>
<path d="M0 0 C1.32 0 2.64 0 4 0 C4 2.64 4 5.28 4 8 C2.68 8 1.36 8 0 8 C0 5.36 0 2.72 0 0 Z " fill="#686868" transform="translate(2621,1357)"/>
<path d="M0 0 C1.32 0 2.64 0 4 0 C4 2.64 4 5.28 4 8 C2.68 8 1.36 8 0 8 C0 5.36 0 2.72 0 0 Z " fill="#777777" transform="translate(2707,1349)"/>
<path d="M0 0 C1.32 0 2.64 0 4 0 C4 2.64 4 5.28 4 8 C2.68 8 1.36 8 0 8 C0 5.36 0 2.72 0 0 Z " fill="#A8A8A8" transform="translate(2853,1349)"/>
<path d="M0 0 C1.32 0 2.64 0 4 0 C4 2.64 4 5.28 4 8 C2.68 8 1.36 8 0 8 C0 5.36 0 2.72 0 0 Z " fill="#909090" transform="translate(2849,1333)"/>
<path d="M0 0 C1.32 0 2.64 0 4 0 C4 2.64 4 5.28 4 8 C2.68 8 1.36 8 0 8 C0 5.36 0 2.72 0 0 Z " fill="#787878" transform="translate(2842,1306)"/>
<path d="M0 0 C1.32 0 2.64 0 4 0 C4 2.64 4 5.28 4 8 C2.68 8 1.36 8 0 8 C0 5.36 0 2.72 0 0 Z " fill="#5F5F5F" transform="translate(2838,1294)"/>
<path d="M0 0 C1.32 0 2.64 0 4 0 C4 2.64 4 5.28 4 8 C2.68 8 1.36 8 0 8 C0 5.36 0 2.72 0 0 Z " fill="#777777" transform="translate(2834,1282)"/>
<path d="M0 0 C1.32 0 2.64 0 4 0 C4 2.31 4 4.62 4 7 C3.01 7.495 3.01 7.495 2 8 C-0.625 7.0625 -0.625 7.0625 -3 6 C-2.01 5.67 -1.02 5.34 0 5 C0 3.35 0 1.7 0 0 Z " fill="#474747" transform="translate(2814,1239)"/>
<path d="M0 0 C2.64 0 5.28 0 8 0 C8 1.32 8 2.64 8 4 C5.36 4 2.72 4 0 4 C0 2.68 0 1.36 0 0 Z " fill="#777777" transform="translate(2498,1235)"/>
<path d="M0 0 C2.64 0 5.28 0 8 0 C8 1.32 8 2.64 8 4 C5.36 4 2.72 4 0 4 C0 2.68 0 1.36 0 0 Z " fill="#BFBFBF" transform="translate(2451,1223)"/>
<path d="M0 0 C2.64 0 5.28 0 8 0 C8 1.32 8 2.64 8 4 C5.36 4 2.72 4 0 4 C0 2.68 0 1.36 0 0 Z " fill="#868686" transform="translate(2522,1168)"/>
<path d="M0 0 C2.64 0 5.28 0 8 0 C8 1.32 8 2.64 8 4 C5.36 4 2.72 4 0 4 C0 2.68 0 1.36 0 0 Z " fill="#2F2F2F" transform="translate(2514,1164)"/>
<path d="M0 0 C2.64 0 5.28 0 8 0 C8 1.32 8 2.64 8 4 C5.36 4 2.72 4 0 4 C0 2.68 0 1.36 0 0 Z " fill="#A0A0A0" transform="translate(2494,1160)"/>
<path d="M0 0 C2.64 0 5.28 0 8 0 C8 1.32 8 2.64 8 4 C5.36 4 2.72 4 0 4 C0 2.68 0 1.36 0 0 Z " fill="#8F8F8F" transform="translate(2479,1156)"/>
<path d="M0 0 C2.64 0 5.28 0 8 0 C8 1.32 8 2.64 8 4 C5.36 4 2.72 4 0 4 C0 2.68 0 1.36 0 0 Z " fill="#282828" transform="translate(2467,1152)"/>
<path d="M0 0 C2.64 0 5.28 0 8 0 C8 1.32 8 2.64 8 4 C5.36 4 2.72 4 0 4 C0 2.68 0 1.36 0 0 Z " fill="#505050" transform="translate(2439,1148)"/>
<path d="M0 0 C2.64 0 5.28 0 8 0 C8 1.32 8 2.64 8 4 C5.36 4 2.72 4 0 4 C0 2.68 0 1.36 0 0 Z " fill="#BFBFBF" transform="translate(2423,1148)"/>
<path d="M0 0 C1.32 0 2.64 0 4 0 C4 2.64 4 5.28 4 8 C2.68 8 1.36 8 0 8 C0 5.36 0 2.72 0 0 Z " fill="#B7B7B7" transform="translate(2822,1112)"/>
<path d="M0 0 C1.32 0 2.64 0 4 0 C4 2.64 4 5.28 4 8 C2.68 8 1.36 8 0 8 C0 5.36 0 2.72 0 0 Z " fill="#8F8F8F" transform="translate(2830,1093)"/>
<path d="M0 0 C1.32 0 2.64 0 4 0 C4 2.64 4 5.28 4 8 C2.68 8 1.36 8 0 8 C0 5.36 0 2.72 0 0 Z " fill="#B6B6B6" transform="translate(2838,1073)"/>
<path d="M0 0 C1.32 0 2.64 0 4 0 C4 2.64 4 5.28 4 8 C2.68 8 1.36 8 0 8 C0 5.36 0 2.72 0 0 Z " fill="#B7B7B7" transform="translate(2842,1061)"/>
<path d="M0 0 C2.64 0 5.28 0 8 0 C8 1.32 8 2.64 8 4 C5.36 4 2.72 4 0 4 C0 2.68 0 1.36 0 0 Z " fill="#909090" transform="translate(2625,1057)"/>
<path d="M0 0 C1.32 0 2.64 0 4 0 C4 2.64 4 5.28 4 8 C2.68 8 1.36 8 0 8 C0 5.36 0 2.72 0 0 Z " fill="#6F6F6F" transform="translate(2700,1037)"/>
<path d="M0 0 C1.32 0 2.64 0 4 0 C4 2.64 4 5.28 4 8 C2.68 8 1.36 8 0 8 C0 5.36 0 2.72 0 0 Z " fill="#707070" transform="translate(2853,1010)"/>
<path d="M0 0 C1.32 0 2.64 0 4 0 C4 2.64 4 5.28 4 8 C2.68 8 1.36 8 0 8 C0 5.36 0 2.72 0 0 Z " fill="#B6B6B6" transform="translate(2621,1010)"/>
<path d="M0 0 C1.32 0 2.64 0 4 0 C4 2.64 4 5.28 4 8 C2.68 8 1.36 8 0 8 C0 5.36 0 2.72 0 0 Z " fill="#5F5F5F" transform="translate(2711,1002)"/>
<path d="M0 0 C1.32 0 2.64 0 4 0 C4 2.64 4 5.28 4 8 C2.68 8 1.36 8 0 8 C0 5.36 0 2.72 0 0 Z " fill="#CDCDCD" transform="translate(2857,994)"/>
<path d="M0 0 C1.32 0 2.64 0 4 0 C4 2.64 4 5.28 4 8 C2.68 8 1.36 8 0 8 C0 5.36 0 2.72 0 0 Z " fill="#808080" transform="translate(2625,994)"/>
<path d="M0 0 C1.32 0 2.64 0 4 0 C4 2.64 4 5.28 4 8 C2.68 8 1.36 8 0 8 C0 5.36 0 2.72 0 0 Z " fill="#686868" transform="translate(2715,982)"/>
<path d="M0 0 C1.32 0 2.64 0 4 0 C4 2.64 4 5.28 4 8 C2.68 8 1.36 8 0 8 C0 5.36 0 2.72 0 0 Z " fill="#474747" transform="translate(2857,978)"/>
<path d="M0 0 C1.32 0 2.64 0 4 0 C4 2.64 4 5.28 4 8 C2.68 8 1.36 8 0 8 C0 5.36 0 2.72 0 0 Z " fill="#C7C7C7" transform="translate(2715,974)"/>
<path d="M0 0 C1.32 0 2.64 0 4 0 C4 2.64 4 5.28 4 8 C2.68 8 1.36 8 0 8 C0 5.36 0 2.72 0 0 Z " fill="#878787" transform="translate(2487,962)"/>
<path d="M0 0 C1.32 0 2.64 0 4 0 C4 2.64 4 5.28 4 8 C2.68 8 1.36 8 0 8 C0 5.36 0 2.72 0 0 Z " fill="#777777" transform="translate(2487,927)"/>
<path d="M0 0 C1.32 0 2.64 0 4 0 C4 2.64 4 5.28 4 8 C2.68 8 1.36 8 0 8 C0 5.36 0 2.72 0 0 Z " fill="#363636" transform="translate(2629,927)"/>
<path d="M0 0 C1.32 0 2.64 0 4 0 C4 2.64 4 5.28 4 8 C2.68 8 1.36 8 0 8 C0 5.36 0 2.72 0 0 Z " fill="#B0B0B0" transform="translate(2629,911)"/>
<path d="M0 0 C1.32 0 2.64 0 4 0 C4 2.64 4 5.28 4 8 C2.68 8 1.36 8 0 8 C0 5.36 0 2.72 0 0 Z " fill="#3F3F3F" transform="translate(2719,903)"/>
<path d="M0 0 C1.32 0 2.64 0 4 0 C4 2.64 4 5.28 4 8 C2.68 8 1.36 8 0 8 C0 5.36 0 2.72 0 0 Z " fill="#8F8F8F" transform="translate(2625,895)"/>
<path d="M0 0 C2.64 0 5.28 0 8 0 C8 1.32 8 2.64 8 4 C5.36 4 2.72 4 0 4 C0 2.68 0 1.36 0 0 Z " fill="#868686" transform="translate(2439,891)"/>
<path d="M0 0 C1.32 0 2.64 0 4 0 C4 2.64 4 5.28 4 8 C2.68 8 1.36 8 0 8 C0 5.36 0 2.72 0 0 Z " fill="#686868" transform="translate(2715,880)"/>
<path d="M0 0 C1.32 0 2.64 0 4 0 C4 2.64 4 5.28 4 8 C2.68 8 1.36 8 0 8 C0 5.36 0 2.72 0 0 Z " fill="#8F8F8F" transform="translate(2711,864)"/>
<path d="M0 0 C1.32 0 2.64 0 4 0 C4 2.64 4 5.28 4 8 C2.68 8 1.36 8 0 8 C0 5.36 0 2.72 0 0 Z " fill="#4F4F4F" transform="translate(2853,856)"/>
<path d="M0 0 C1.32 0 2.64 0 4 0 C4 2.64 4 5.28 4 8 C2.68 8 1.36 8 0 8 C0 5.36 0 2.72 0 0 Z " fill="#C7C7C7" transform="translate(2707,852)"/>
<path d="M0 0 C1.32 0 2.64 0 4 0 C4 2.64 4 5.28 4 8 C2.68 8 1.36 8 0 8 C0 5.36 0 2.72 0 0 Z " fill="#A8A8A8" transform="translate(2853,848)"/>
<path d="M0 0 C1.32 0 2.64 0 4 0 C4 2.64 4 5.28 4 8 C2.68 8 1.36 8 0 8 C0 5.36 0 2.72 0 0 Z " fill="#868686" transform="translate(2849,832)"/>
<path d="M0 0 C1.32 0 2.64 0 4 0 C4 2.64 4 5.28 4 8 C2.68 8 1.36 8 0 8 C0 5.36 0 2.72 0 0 Z " fill="#C7C7C7" transform="translate(2700,828)"/>
<path d="M0 0 C1.32 0 2.64 0 4 0 C4 2.64 4 5.28 4 8 C2.68 8 1.36 8 0 8 C0 5.36 0 2.72 0 0 Z " fill="#6E6E6E" transform="translate(2842,805)"/>
<path d="M0 0 C1.32 0 2.64 0 4 0 C4 2.64 4 5.28 4 8 C2.68 8 1.36 8 0 8 C0 5.36 0 2.72 0 0 Z " fill="#5F5F5F" transform="translate(2838,793)"/>
<path d="M0 0 C1.32 0 2.64 0 4 0 C4 2.64 4 5.28 4 8 C2.68 8 1.36 8 0 8 C0 5.36 0 2.72 0 0 Z " fill="#777777" transform="translate(2834,781)"/>
<path d="M0 0 C2.64 0 5.28 0 8 0 C8 1.32 8 2.64 8 4 C5.36 4 2.72 4 0 4 C0 2.68 0 1.36 0 0 Z " fill="#AEAEAE" transform="translate(2510,765)"/>
<path d="M0 0 C2.64 0 5.28 0 8 0 C8 1.32 8 2.64 8 4 C5.36 4 2.72 4 0 4 C0 2.68 0 1.36 0 0 Z " fill="#A0A0A0" transform="translate(2530,663)"/>
<path d="M0 0 C2.64 0 5.28 0 8 0 C8 1.32 8 2.64 8 4 C5.36 4 2.72 4 0 4 C0 2.68 0 1.36 0 0 Z " fill="#606060" transform="translate(2522,659)"/>
<path d="M0 0 C2.64 0 5.28 0 8 0 C8 1.32 8 2.64 8 4 C5.36 4 2.72 4 0 4 C0 2.68 0 1.36 0 0 Z " fill="#969696" transform="translate(2506,655)"/>
<path d="M0 0 C2.64 0 5.28 0 8 0 C8 1.32 8 2.64 8 4 C5.36 4 2.72 4 0 4 C0 2.68 0 1.36 0 0 Z " fill="#2E2E2E" transform="translate(2479,647)"/>
<path d="M0 0 C2.64 0 5.28 0 8 0 C8 1.32 8 2.64 8 4 C5.36 4 2.72 4 0 4 C0 2.68 0 1.36 0 0 Z " fill="#9F9F9F" transform="translate(2577,529)"/>
<path d="M0 0 C2.64 0 5.28 0 8 0 C8 1.32 8 2.64 8 4 C5.36 4 2.72 4 0 4 C0 2.68 0 1.36 0 0 Z " fill="#868686" transform="translate(2565,525)"/>
<path d="M0 0 C2.64 0 5.28 0 8 0 C8 1.32 8 2.64 8 4 C5.36 4 2.72 4 0 4 C0 2.68 0 1.36 0 0 Z " fill="#979797" transform="translate(2554,521)"/>
<path d="M0 0 C2.64 0 5.28 0 8 0 C8 1.32 8 2.64 8 4 C5.36 4 2.72 4 0 4 C0 2.68 0 1.36 0 0 Z " fill="#787878" transform="translate(2538,517)"/>
<path d="M0 0 C2.64 0 5.28 0 8 0 C8 1.32 8 2.64 8 4 C5.36 4 2.72 4 0 4 C0 2.68 0 1.36 0 0 Z " fill="#B6B6B6" transform="translate(2526,513)"/>
<path d="M0 0 C2.64 0 5.28 0 8 0 C8 1.32 8 2.64 8 4 C5.36 4 2.72 4 0 4 C0 2.68 0 1.36 0 0 Z " fill="#484848" transform="translate(2518,513)"/>
<path d="M0 0 C2.64 0 5.28 0 8 0 C8 1.32 8 2.64 8 4 C5.36 4 2.72 4 0 4 C0 2.68 0 1.36 0 0 Z " fill="#A8A8A8" transform="translate(2506,509)"/>
<path d="M0 0 C2.64 0 5.28 0 8 0 C8 1.32 8 2.64 8 4 C5.36 4 2.72 4 0 4 C0 2.68 0 1.36 0 0 Z " fill="#BFBFBF" transform="translate(2483,505)"/>
<path d="M0 0 C1.32 0 2.64 0 4 0 C3.65978036 3.17538332 2.97533396 4.02276865 0.5625 6.25 C-2 8 -2 8 -4 8 C-4 6.68 -4 5.36 -4 4 C-2.68 4 -1.36 4 0 4 C0 2.68 0 1.36 0 0 Z " fill="#D7D7D7" transform="translate(2554,1578)"/>
<path d="M0 0 C2.31 0 4.62 0 7 0 C7 1.32 7 2.64 7 4 C4.69 4 2.38 4 0 4 C0 2.68 0 1.36 0 0 Z " fill="#141414" transform="translate(2558,1179)"/>
<path d="M0 0 C1.32 0 2.64 0 4 0 C4 2.31 4 4.62 4 7 C3.01 7.33 2.02 7.66 1 8 C1 7.34 1 6.68 1 6 C0.34 5.67 -0.32 5.34 -1 5 C-0.67 3.35 -0.34 1.7 0 0 Z " fill="#3B3B3B" transform="translate(2818,746)"/>
<path d="M0 0 C2.31 0 4.62 0 7 0 C7.33 1.32 7.66 2.64 8 4 C5.36 4 2.72 4 0 4 C0 2.68 0 1.36 0 0 Z " fill="#D4D4D4" transform="translate(2491,757)"/>
<path d="M0 0 C2.31 0 4.62 0 7 0 C7 1.32 7 2.64 7 4 C4.69 4 2.38 4 0 4 C0 2.68 0 1.36 0 0 Z " fill="#C5C5C5" transform="translate(2487,1862)"/>
<path d="M0 0 C2.31 0 4.62 0 7 0 C7 1.32 7 2.64 7 4 C4.69 4 2.38 4 0 4 C0 2.68 0 1.36 0 0 Z " fill="#B3B3B3" transform="translate(2491,1716)"/>
<path d="M0 0 C2.31 0 4.62 0 7 0 C7 1.32 7 2.64 7 4 C4.69 4 2.38 4 0 4 C0 2.68 0 1.36 0 0 Z " fill="#626262" transform="translate(2487,1609)"/>
<path d="M0 0 C0.99 0 1.98 0 3 0 C3 1.32 3 2.64 3 4 C4.32 4 5.64 4 7 4 C6.67 4.99 6.34 5.98 6 7 C4.35 7.33 2.7 7.66 1 8 C1 6.35 1 4.7 1 3 C0.34 2.67 -0.32 2.34 -1 2 C-0.67 1.34 -0.34 0.68 0 0 Z " fill="#E7E7E7" transform="translate(2472,1381)"/>
<path d="M0 0 C2.31 0 4.62 0 7 0 C7 1.32 7 2.64 7 4 C4.69 4 2.38 4 0 4 C0 2.68 0 1.36 0 0 Z " fill="#6F6F6F" transform="translate(2487,1231)"/>
<path d="M0 0 C1.32 0 2.64 0 4 0 C4 2.31 4 4.62 4 7 C2.68 7 1.36 7 0 7 C0 4.69 0 2.38 0 0 Z " fill="#484848" transform="translate(2613,1026)"/>
<path d="M0 0 C1.32 0 2.64 0 4 0 C4 2.31 4 4.62 4 7 C2.68 7 1.36 7 0 7 C0 4.69 0 2.38 0 0 Z " fill="#404040" transform="translate(2719,959)"/>
<path d="M0 0 C1.32 0 2.64 0 4 0 C4 2.31 4 4.62 4 7 C2.68 7 1.36 7 0 7 C0 4.69 0 2.38 0 0 Z " fill="#B7B7B7" transform="translate(2715,888)"/>
<path d="M0 0 C1.32 0 2.64 0 4 0 C4 2.31 4 4.62 4 7 C2.68 7 1.36 7 0 7 C0 4.69 0 2.38 0 0 Z " fill="#7C7C7C" transform="translate(2621,884)"/>
<path d="M0 0 C0.99 0.33 1.98 0.66 3 1 C3 1.99 3 2.98 3 4 C3.99 4.33 4.98 4.66 6 5 C5.67 5.99 5.34 6.98 5 8 C4.34 8 3.68 8 3 8 C3 7.01 3 6.02 3 5 C1.68 5 0.36 5 -1 5 C-0.67 3.35 -0.34 1.7 0 0 Z " fill="#111111" transform="translate(2653,1245)"/>
<path d="M0 0 C-0.33 1.32 -0.66 2.64 -1 4 C-1.66 4 -2.32 4 -3 4 C-3 4.99 -3 5.98 -3 7 C-4.32 7 -5.64 7 -7 7 C-7 3 -7 3 -5.75 1.25 C-4 0 -4 0 0 0 Z " fill="#E8E8E8" transform="translate(2797,1192)"/>
<path d="M0 0 C2.31 0.33 4.62 0.66 7 1 C7.33 1.99 7.66 2.98 8 4 C5.69 4.33 3.38 4.66 1 5 C0.67 3.35 0.34 1.7 0 0 Z " fill="#F0F0F0" transform="translate(2573,1562)"/>
<path d="M0 0 C1.32 0 2.64 0 4 0 C4.125 2.375 4.125 2.375 4 5 C2 7 2 7 0 8 C0 5.36 0 2.72 0 0 Z " fill="#F0F0F0" transform="translate(2538,1590)"/>
<path d="M0 0 C0.99 0 1.98 0 3 0 C3 2.64 3 5.28 3 8 C2.01 8 1.02 8 0 8 C0 5.36 0 2.72 0 0 Z " fill="#7F7F7F" transform="translate(2846,1546)"/>
<path d="M0 0 C0.99 0 1.98 0 3 0 C3 2.64 3 5.28 3 8 C2.01 8 1.02 8 0 8 C0 5.36 0 2.72 0 0 Z " fill="#909090" transform="translate(2846,1317)"/>
<path d="M0 0 C0.99 0 1.98 0 3 0 C3 2.64 3 5.28 3 8 C2.01 8 1.02 8 0 8 C0 5.36 0 2.72 0 0 Z " fill="#7F7F7F" transform="translate(2846,1045)"/>
<path d="M0 0 C2.64 0.66 5.28 1.32 8 2 C8 2.33 8 2.66 8 3 C6.35 3 4.7 3 3 3 C3 3.66 3 4.32 3 5 C1.68 5 0.36 5 -1 5 C-0.67 3.35 -0.34 1.7 0 0 Z " fill="#1C1C1C" transform="translate(2578,681)"/>
<path d="M0 0 C0.99 0 1.98 0 3 0 C3 2.31 3 4.62 3 7 C2.01 7 1.02 7 0 7 C0 4.69 0 2.38 0 0 Z " fill="#828282" transform="translate(2704,1527)"/>
<path d="M0 0 C0.99 0 1.98 0 3 0 C3 2.31 3 4.62 3 7 C2.01 7 1.02 7 0 7 C0 4.69 0 2.38 0 0 Z " fill="#8F8F8F" transform="translate(2704,1026)"/>
<path d="M0 0 C0.99 0 1.98 0 3 0 C3 2.31 3 4.62 3 7 C2.01 7 1.02 7 0 7 C0 4.69 0 2.38 0 0 Z " fill="#8C8C8C" transform="translate(2846,817)"/>
<path d="M0 0 C1.98 0 3.96 0 6 0 C6 0.99 6 1.98 6 3 C4.02 3.33 2.04 3.66 0 4 C0 2.68 0 1.36 0 0 Z " fill="#F0F0F0" transform="translate(2798,706)"/>
<path d="M0 0 C2 2 2 2 2 5 C0.02 5 -1.96 5 -4 5 C-4 3.68 -4 2.36 -4 1 C-2.125 0.375 -2.125 0.375 0 0 Z " fill="#EFEFEF" transform="translate(2581,1557)"/>
<path d="M0 0 C1.65 0 3.3 0 5 0 C5 1.33333333 5 2.66666667 5 4 C3.35 4 1.7 4 0 4 C0 2.68 0 1.36 0 0 Z " fill="#0D0D0D" transform="translate(2451,1475)"/>
<path d="M0 0 C1.32 0 2.64 0 4 0 C4.33 1.65 4.66 3.3 5 5 C4.01 5.495 4.01 5.495 3 6 C3 5.34 3 4.68 3 4 C2.01 4 1.02 4 0 4 C-0.33 3.01 -0.66 2.02 -1 1 C-0.67 0.67 -0.34 0.34 0 0 Z " fill="#EEEEEE" transform="translate(2621,718)"/>
<path d="M0 0 C0.66 0.33 1.32 0.66 2 1 C2 2.32 2 3.64 2 5 C0.02 5 -1.96 5 -4 5 C-3.34 4.67 -2.68 4.34 -2 4 C-2 3.01 -2 2.02 -2 1 C-1.34 0.67 -0.68 0.34 0 0 Z " fill="#0E0E0E" transform="translate(2552,1845)"/>
<path d="M0 0 C2.475 0.495 2.475 0.495 5 1 C5 1.99 5 2.98 5 4 C3.35 4 1.7 4 0 4 C0 2.68 0 1.36 0 0 Z " fill="#EFEFEF" transform="translate(2751,1724)"/>
<path d="M0 0 C2.475 0.495 2.475 0.495 5 1 C4.67 2.32 4.34 3.64 4 5 C2.68 4.67 1.36 4.34 0 4 C0 2.68 0 1.36 0 0 Z " fill="#EFEFEF" transform="translate(2818,1625)"/>
<path d="M0 0 C2.97 0.495 2.97 0.495 6 1 C6 2.32 6 3.64 6 5 C4.68 5 3.36 5 2 5 C2 4.01 2 3.02 2 2 C1.34 2 0.68 2 0 2 C0 1.34 0 0.68 0 0 Z " fill="#0F0F0F" transform="translate(2548,1577)"/>
<path d="M0 0 C1.32 0 2.64 0 4 0 C4 1.32 4 2.64 4 4 C3.01 4 2.02 4 1 4 C0.67 4.99 0.34 5.98 0 7 C0 4.69 0 2.38 0 0 Z " fill="#7B7B7B" transform="translate(2857,1381)"/>
<path d="M0 0 C3 3.875 3 3.875 3 5 C1.02 5 -0.96 5 -3 5 C-2.625 3.0625 -2.625 3.0625 -2 1 C-1.34 0.67 -0.68 0.34 0 0 Z " fill="#F0F0F0" transform="translate(2576,1277)"/>
<path d="M0 0 C2.31 0 4.62 0 7 0 C6.01 0.33 5.02 0.66 4 1 C4 1.99 4 2.98 4 4 C2.68 4 1.36 4 0 4 C0 2.68 0 1.36 0 0 Z " fill="#F0F0F0" transform="translate(2625,891)"/>
<path d="M0 0 C1.32 0 2.64 0 4 0 C4 1.32 4 2.64 4 4 C2.02 4 0.04 4 -2 4 C-1.34 2.68 -0.68 1.36 0 0 Z " fill="#CECECE" transform="translate(2455,749)"/>
<path d="M0 0 C2.475 0.495 2.475 0.495 5 1 C5.33 1.99 5.66 2.98 6 4 C4.35 4.33 2.7 4.66 1 5 C0.67 3.35 0.34 1.7 0 0 Z " fill="#EDEDED" transform="translate(2718,610)"/>
<path d="M0 0 C1.65 0 3.3 0 5 0 C5 0.66 5 1.32 5 2 C4.34 2 3.68 2 3 2 C3 2.66 3 3.32 3 4 C1.68 4.33 0.36 4.66 -1 5 C-0.67 3.35 -0.34 1.7 0 0 Z " fill="#070707" transform="translate(2542,521)"/>
<path d="M0 0 C0.66 0.33 1.32 0.66 2 1 C1.67 2.32 1.34 3.64 1 5 C-0.32 5 -1.64 5 -3 5 C-3 3.68 -3 2.36 -3 1 C-2.01 0.67 -1.02 0.34 0 0 Z " fill="#101010" transform="translate(2632,1813)"/>
<path d="M0 0 C0.99 0.33 1.98 0.66 3 1 C3 2.32 3 3.64 3 5 C1.68 5 0.36 5 -1 5 C-0.67 3.35 -0.34 1.7 0 0 Z " fill="#0F0F0F" transform="translate(2657,1798)"/>
<path d="M0 0 C1.98 0.99 1.98 0.99 4 2 C4 3.32 4 4.64 4 6 C2.68 6 1.36 6 0 6 C0 4.02 0 2.04 0 0 Z " fill="#0D0D0D" transform="translate(2696,1769)"/>
<path d="M0 0 C0.66 0.33 1.32 0.66 2 1 C2 2.32 2 3.64 2 5 C0.35 4.67 -1.3 4.34 -3 4 C-2.67 3.01 -2.34 2.02 -2 1 C-1.34 0.67 -0.68 0.34 0 0 Z " fill="#2F2F2F" transform="translate(2721,1750)"/>
<path d="M0 0 C0.99 0.33 1.98 0.66 3 1 C3 2.32 3 3.64 3 5 C1.68 5 0.36 5 -1 5 C-0.67 3.35 -0.34 1.7 0 0 Z " fill="#0F0F0F" transform="translate(2795,1660)"/>
<path d="M0 0 C2.475 0.495 2.475 0.495 5 1 C4.67 1.99 4.34 2.98 4 4 C3.01 4.33 2.02 4.66 1 5 C0.67 3.35 0.34 1.7 0 0 Z " fill="#0E0E0E" transform="translate(2613,1661)"/>
<path d="M0 0 C1.98 0.495 1.98 0.495 4 1 C4 2.32 4 3.64 4 5 C2.68 5 1.36 5 0 5 C-0.33 4.01 -0.66 3.02 -1 2 C-0.67 1.34 -0.34 0.68 0 0 Z " fill="#0F0F0F" transform="translate(2818,1616)"/>
<path d="M0 0 C0.66 0.33 1.32 0.66 2 1 C2 2.32 2 3.64 2 5 C0.35 4.67 -1.3 4.34 -3 4 C-2.67 3.01 -2.34 2.02 -2 1 C-1.34 0.67 -0.68 0.34 0 0 Z " fill="#2A2A2A" transform="translate(2571,1561)"/>
<path d="M0 0 C0.33 0.66 0.66 1.32 1 2 C1.99 2 2.98 2 4 2 C4 3.32 4 4.64 4 6 C2.68 6 1.36 6 0 6 C0 4.02 0 2.04 0 0 Z " fill="#323232" transform="translate(2376,1473)"/>
<path d="M0 0 C2.475 0.495 2.475 0.495 5 1 C5 1.99 5 2.98 5 4 C3.35 4 1.7 4 0 4 C0 2.68 0 1.36 0 0 Z " fill="#0F0F0F" transform="translate(2688,1069)"/>
<path d="M0 0 C1.32 0 2.64 0 4 0 C4 1.32 4 2.64 4 4 C1.03 3.505 1.03 3.505 -2 3 C-1.34 2.67 -0.68 2.34 0 2 C0 1.34 0 0.68 0 0 Z " fill="#D0D0D0" transform="translate(2479,978)"/>
<path d="M0 0 C0.33 0 0.66 0 1 0 C1 1.98 1 3.96 1 6 C-0.32 6 -1.64 6 -3 6 C-3 4.68 -3 3.36 -3 2 C-2.01 2 -1.02 2 0 2 C0 1.34 0 0.68 0 0 Z " fill="#6F6F6F" transform="translate(2722,953)"/>
<path d="M0 0 C0 1.32 0 2.64 0 4 C-1.32 4 -2.64 4 -4 4 C-4 3.34 -4 2.68 -4 2 C-4.66 1.67 -5.32 1.34 -6 1 C-4 0 -4 0 0 0 Z " fill="#E0E0E0" transform="translate(2475,907)"/>
<path d="M0 0 C0.33 0.66 0.66 1.32 1 2 C2.65 1.67 4.3 1.34 6 1 C5.34 2.32 4.68 3.64 4 5 C2.68 5 1.36 5 0 5 C0 3.35 0 1.7 0 0 Z " fill="#F5F5F5" transform="translate(2577,808)"/>
<path d="M0 0 C1.32 0 2.64 0 4 0 C4 0.66 4 1.32 4 2 C4.66 2.33 5.32 2.66 6 3 C4.02 3.33 2.04 3.66 0 4 C0 2.68 0 1.36 0 0 Z " fill="#2C2C2C" transform="translate(2621,714)"/>
<path d="M0 0 C1.32 0 2.64 0 4 0 C4 1.32 4 2.64 4 4 C2.68 4.33 1.36 4.66 0 5 C-0.33 4.34 -0.66 3.68 -1 3 C-0.67 2.01 -0.34 1.02 0 0 Z " fill="#1E1E1E" transform="translate(2778,682)"/>
<path d="M0 0 C1.32 0 2.64 0 4 0 C4 1.32 4 2.64 4 4 C3.01 4.33 2.02 4.66 1 5 C0.67 3.35 0.34 1.7 0 0 Z " fill="#E1E1E1" transform="translate(2593,1834)"/>
<path d="M0 0 C1.32 0 2.64 0 4 0 C4 1.32 4 2.64 4 4 C2.35 3.67 0.7 3.34 -1 3 C-0.67 2.01 -0.34 1.02 0 0 Z " fill="#101010" transform="translate(2680,1783)"/>
<path d="M0 0 C1.32 0 2.64 0 4 0 C4 1.32 4 2.64 4 4 C1.03 3.505 1.03 3.505 -2 3 C-1.34 2.67 -0.68 2.34 0 2 C0 1.34 0 0.68 0 0 Z " fill="#0F0F0F" transform="translate(2743,1728)"/>
<path d="M0 0 C0.99 0.33 1.98 0.66 3 1 C3 2.32 3 3.64 3 5 C1.68 5 0.36 5 -1 5 C-0.67 3.35 -0.34 1.7 0 0 Z " fill="#0F0F0F" transform="translate(2787,1671)"/>
<path d="M0 0 C0.99 0.33 1.98 0.66 3 1 C3 2.32 3 3.64 3 5 C1.68 5 0.36 5 -1 5 C-0.67 3.35 -0.34 1.7 0 0 Z " fill="#EEEEEE" transform="translate(2618,1652)"/>
<path d="M0 0 C1.32 0 2.64 0 4 0 C4 1.32 4 2.64 4 4 C2.35 3.67 0.7 3.34 -1 3 C-0.67 2.01 -0.34 1.02 0 0 Z " fill="#EDEDED" transform="translate(2621,1649)"/>
<path d="M0 0 C2.475 0.495 2.475 0.495 5 1 C4.67 1.99 4.34 2.98 4 4 C2.68 4 1.36 4 0 4 C0 2.68 0 1.36 0 0 Z " fill="#2D2D2D" transform="translate(2648,1625)"/>
<path d="M0 0 C1.65 0 3.3 0 5 0 C4.67 0.99 4.34 1.98 4 3 C1.9375 3.6875 1.9375 3.6875 0 4 C0 2.68 0 1.36 0 0 Z " fill="#F7F7F7" transform="translate(2501,1609)"/>
<path d="M0 0 C1.32 0 2.64 0 4 0 C4.33 1.32 4.66 2.64 5 4 C3.35 4 1.7 4 0 4 C0 2.68 0 1.36 0 0 Z " fill="#D2D2D2" transform="translate(2530,1594)"/>
<path d="M0 0 C0.66 0.33 1.32 0.66 2 1 C2 2.32 2 3.64 2 5 C0.68 5 -0.64 5 -2 5 C-2 3.68 -2 2.36 -2 1 C-1.34 0.67 -0.68 0.34 0 0 Z " fill="#3C3C3C" transform="translate(2528,1593)"/>
<path d="M0 0 C1.32 0.33 2.64 0.66 4 1 C4 2.32 4 3.64 4 5 C2.68 5 1.36 5 0 5 C0 3.35 0 1.7 0 0 Z " fill="#101010" transform="translate(2538,1585)"/>
<path d="M0 0 C1.32 0 2.64 0 4 0 C4.33 0.99 4.66 1.98 5 3 C3.35 3.33 1.7 3.66 0 4 C0 2.68 0 1.36 0 0 Z " fill="#202020" transform="translate(2471,1377)"/>
<path d="M0 0 C1.32 0 2.64 0 4 0 C4.33 0.99 4.66 1.98 5 3 C3.35 3.33 1.7 3.66 0 4 C0 2.68 0 1.36 0 0 Z " fill="#202020" transform="translate(2459,1369)"/>
<path d="M0 0 C1.32 0 2.64 0 4 0 C4 1.32 4 2.64 4 4 C2.68 4 1.36 4 0 4 C-0.33 3.01 -0.66 2.02 -1 1 C-0.67 0.67 -0.34 0.34 0 0 Z " fill="#202020" transform="translate(2613,1341)"/>
<path d="M0 0 C0 1.65 0 3.3 0 5 C-1.32 5 -2.64 5 -4 5 C-4 3.68 -4 2.36 -4 1 C-1 0 -1 0 0 0 Z " fill="#0E0E0E" transform="translate(2680,1277)"/>
<path d="M0 0 C1.32 0 2.64 0 4 0 C4 1.32 4 2.64 4 4 C2.68 4.33 1.36 4.66 0 5 C0 3.35 0 1.7 0 0 Z " fill="#EFEFEF" transform="translate(2648,1246)"/>
<path d="M0 0 C0.66 0.99 1.32 1.98 2 3 C1.67 3.66 1.34 4.32 1 5 C-0.32 5 -1.64 5 -3 5 C-3 3.68 -3 2.36 -3 1 C-2.01 0.67 -1.02 0.34 0 0 Z " fill="#EFEFEF" transform="translate(2509,1234)"/>
<path d="M0 0 C0 1.65 0 3.3 0 5 C-1.32 5 -2.64 5 -4 5 C-4 3.68 -4 2.36 -4 1 C-1 0 -1 0 0 0 Z " fill="#1F1F1F" transform="translate(2640,1230)"/>
<path d="M0 0 C0.99 0.33 1.98 0.66 3 1 C3 2.32 3 3.64 3 5 C1.68 5 0.36 5 -1 5 C-0.67 3.35 -0.34 1.7 0 0 Z " fill="#1F1F1F" transform="translate(2582,1190)"/>
<path d="M0 0 C2.475 0.495 2.475 0.495 5 1 C4.67 1.99 4.34 2.98 4 4 C2.68 4 1.36 4 0 4 C0 2.68 0 1.36 0 0 Z " fill="#F0F0F0" transform="translate(2810,1140)"/>
<path d="M0 0 C1.32 0 2.64 0 4 0 C4 1.32 4 2.64 4 4 C2.35 4 0.7 4 -1 4 C-0.67 2.68 -0.34 1.36 0 0 Z " fill="#101010" transform="translate(2652,1073)"/>
<path d="M0 0 C1.32 0 2.64 0 4 0 C3.67 1.65 3.34 3.3 3 5 C2.01 4.67 1.02 4.34 0 4 C0 2.68 0 1.36 0 0 Z " fill="#0F0F0F" transform="translate(2692,1061)"/>
<path d="M0 0 C1.32 0 2.64 0 4 0 C4 1.32 4 2.64 4 4 C2.35 3.67 0.7 3.34 -1 3 C-0.67 2.01 -0.34 1.02 0 0 Z " fill="#0F0F0F" transform="translate(2605,1041)"/>
<path d="M0 0 C2.475 0.495 2.475 0.495 5 1 C4.01 2.32 3.02 3.64 2 5 C1.34 4.67 0.68 4.34 0 4 C0 2.68 0 1.36 0 0 Z " fill="#F0F0F0" transform="translate(2625,1002)"/>
<path d="M0 0 C0.99 0.33 1.98 0.66 3 1 C3 2.32 3 3.64 3 5 C1.68 5 0.36 5 -1 5 C-0.67 3.35 -0.34 1.7 0 0 Z " fill="#EEEEEE" transform="translate(2484,969)"/>
<path d="M0 0 C1.32 0 2.64 0 4 0 C4 1.32 4 2.64 4 4 C2.35 4 0.7 4 -1 4 C-0.67 2.68 -0.34 1.36 0 0 Z " fill="#DFDFDF" transform="translate(2483,923)"/>
<path d="M0 0 C1.32 0 2.64 0 4 0 C4 1.32 4 2.64 4 4 C2.68 4 1.36 4 0 4 C-0.33 3.01 -0.66 2.02 -1 1 C-0.67 0.67 -0.34 0.34 0 0 Z " fill="#1D1D1D" transform="translate(2609,860)"/>
<path d="M0 0 C0.99 0 1.98 0 3 0 C3.66 1.32 4.32 2.64 5 4 C4.34 4.66 3.68 5.32 3 6 C3 5.34 3 4.68 3 4 C2.01 4.33 1.02 4.66 0 5 C0 3.35 0 1.7 0 0 Z " fill="#0F0F0F" transform="translate(2554,794)"/>
<path d="M0 0 C1.32 0 2.64 0 4 0 C4.33 0.99 4.66 1.98 5 3 C3.35 3.33 1.7 3.66 0 4 C0 2.68 0 1.36 0 0 Z " fill="#2F2F2F" transform="translate(2664,761)"/>
<path d="M0 0 C1.32 0 2.64 0 4 0 C4 1.32 4 2.64 4 4 C2.68 4 1.36 4 0 4 C-0.33 3.01 -0.66 2.02 -1 1 C-0.67 0.67 -0.34 0.34 0 0 Z " fill="#F1F1F1" transform="translate(2644,742)"/>
<path d="M0 0 C1.32 0 2.64 0 4 0 C3.6875 1.9375 3.6875 1.9375 3 4 C2.01 4.33 1.02 4.66 0 5 C-0.33 4.34 -0.66 3.68 -1 3 C-0.67 2.01 -0.34 1.02 0 0 Z " fill="#E1E1E1" transform="translate(2617,714)"/>
<path d="M0 0 C1.32 0 2.64 0 4 0 C4.33 0.99 4.66 1.98 5 3 C3.35 3.33 1.7 3.66 0 4 C0 2.68 0 1.36 0 0 Z " fill="#F0F0F0" transform="translate(2790,694)"/>
<path d="M0 0 C1.32 0 2.64 0 4 0 C4 1.32 4 2.64 4 4 C3.01 4.33 2.02 4.66 1 5 C0.67 3.35 0.34 1.7 0 0 Z " fill="#D0D0D0" transform="translate(2585,690)"/>
<path d="M0 0 C0 1.65 0 3.3 0 5 C-1.32 5 -2.64 5 -4 5 C-4 3.68 -4 2.36 -4 1 C-1 0 -1 0 0 0 Z " fill="#2D2D2D" transform="translate(2550,666)"/>
<path d="M0 0 C1.32 0 2.64 0 4 0 C4.33 0.99 4.66 1.98 5 3 C3.35 3.33 1.7 3.66 0 4 C0 2.68 0 1.36 0 0 Z " fill="#EDEDED" transform="translate(2751,643)"/>
<path d="M0 0 C1.32 0 2.64 0 4 0 C4 1.32 4 2.64 4 4 C3.01 4.33 2.02 4.66 1 5 C0.67 3.35 0.34 1.7 0 0 Z " fill="#2C2C2C" transform="translate(2743,639)"/>
<path d="M0 0 C1.32 0 2.64 0 4 0 C4.33 0.99 4.66 1.98 5 3 C3.35 3.33 1.7 3.66 0 4 C0 2.68 0 1.36 0 0 Z " fill="#ECECEC" transform="translate(2735,627)"/>
<path d="M0 0 C1.32 0 2.64 0 4 0 C4.33 0.99 4.66 1.98 5 3 C3.35 3.33 1.7 3.66 0 4 C0 2.68 0 1.36 0 0 Z " fill="#ECECEC" transform="translate(2727,619)"/>
<path d="M0 0 C1.32 0 2.64 0 4 0 C3.67 1.98 3.34 3.96 3 6 C2.67 5.34 2.34 4.68 2 4 C1.34 4 0.68 4 0 4 C0 2.68 0 1.36 0 0 Z " fill="#0F0F0F" transform="translate(2534,517)"/>
</svg>
